<?xml version="1.0" encoding="utf-8" standalone="no"?>
<!DOCTYPE svg PUBLIC "-//W3C//DTD SVG 1.1//EN"
  "http://www.w3.org/Graphics/SVG/1.1/DTD/svg11.dtd">
<svg xmlns:xlink="http://www.w3.org/1999/xlink" width="1775.256082pt" height="1419.9675pt" viewBox="0 0 1775.256082 1419.9675" xmlns="http://www.w3.org/2000/svg" version="1.1">
 <metadata>
  <rdf:RDF xmlns:dc="http://purl.org/dc/elements/1.1/" xmlns:cc="http://creativecommons.org/ns#" xmlns:rdf="http://www.w3.org/1999/02/22-rdf-syntax-ns#">
   <cc:Work>
    <dc:type rdf:resource="http://purl.org/dc/dcmitype/StillImage"/>
    <dc:date>2025-03-23T12:10:33.561752</dc:date>
    <dc:format>image/svg+xml</dc:format>
    <dc:creator>
     <cc:Agent>
      <dc:title>Matplotlib v3.9.0, https://matplotlib.org/</dc:title>
     </cc:Agent>
    </dc:creator>
   </cc:Work>
  </rdf:RDF>
 </metadata>
 <defs>
  <style type="text/css">*{stroke-linejoin: round; stroke-linecap: butt}</style>
 </defs>
 <g id="figure_1">
  <g id="patch_1">
   <path d="M 0 1419.9675 
L 1775.256082 1419.9675 
L 1775.256082 0 
L 0 0 
z
" style="fill: #ffffff"/>
  </g>
  <g id="axes_1">
   <g id="patch_2">
    <path d="M 53.025781 648.814732 
L 824.968717 648.814732 
L 824.968717 24.8475 
L 53.025781 24.8475 
z
" style="fill: #eaeaf2"/>
   </g>
   <g id="matplotlib.axis_1">
    <g id="xtick_1">
     <g id="text_1">
      <!-- Full-Model (GPU) -->
      <g style="fill: #262626" transform="translate(71.389895 718.304189) rotate(-45) scale(0.1 -0.1)">
       <defs>
        <path id="Arial-BoldMT-46" d="M 472 0 
L 472 4581 
L 3613 4581 
L 3613 3806 
L 1397 3806 
L 1397 2722 
L 3309 2722 
L 3309 1947 
L 1397 1947 
L 1397 0 
L 472 0 
z
" transform="scale(0.015625)"/>
        <path id="Arial-BoldMT-75" d="M 2644 0 
L 2644 497 
Q 2463 231 2167 78 
Q 1872 -75 1544 -75 
Q 1209 -75 943 72 
Q 678 219 559 484 
Q 441 750 441 1219 
L 441 3319 
L 1319 3319 
L 1319 1794 
Q 1319 1094 1367 936 
Q 1416 778 1544 686 
Q 1672 594 1869 594 
Q 2094 594 2272 717 
Q 2450 841 2515 1023 
Q 2581 1206 2581 1919 
L 2581 3319 
L 3459 3319 
L 3459 0 
L 2644 0 
z
" transform="scale(0.015625)"/>
        <path id="Arial-BoldMT-6c" d="M 459 0 
L 459 4581 
L 1338 4581 
L 1338 0 
L 459 0 
z
" transform="scale(0.015625)"/>
        <path id="Arial-BoldMT-2d" d="M 359 1222 
L 359 2100 
L 2084 2100 
L 2084 1222 
L 359 1222 
z
" transform="scale(0.015625)"/>
        <path id="Arial-BoldMT-4d" d="M 453 0 
L 453 4581 
L 1838 4581 
L 2669 1456 
L 3491 4581 
L 4878 4581 
L 4878 0 
L 4019 0 
L 4019 3606 
L 3109 0 
L 2219 0 
L 1313 3606 
L 1313 0 
L 453 0 
z
" transform="scale(0.015625)"/>
        <path id="Arial-BoldMT-6f" d="M 256 1706 
Q 256 2144 472 2553 
Q 688 2963 1083 3178 
Q 1478 3394 1966 3394 
Q 2719 3394 3200 2905 
Q 3681 2416 3681 1669 
Q 3681 916 3195 420 
Q 2709 -75 1972 -75 
Q 1516 -75 1102 131 
Q 688 338 472 736 
Q 256 1134 256 1706 
z
M 1156 1659 
Q 1156 1166 1390 903 
Q 1625 641 1969 641 
Q 2313 641 2545 903 
Q 2778 1166 2778 1666 
Q 2778 2153 2545 2415 
Q 2313 2678 1969 2678 
Q 1625 2678 1390 2415 
Q 1156 2153 1156 1659 
z
" transform="scale(0.015625)"/>
        <path id="Arial-BoldMT-64" d="M 3503 0 
L 2688 0 
L 2688 488 
Q 2484 203 2207 64 
Q 1931 -75 1650 -75 
Q 1078 -75 670 386 
Q 263 847 263 1672 
Q 263 2516 659 2955 
Q 1056 3394 1663 3394 
Q 2219 3394 2625 2931 
L 2625 4581 
L 3503 4581 
L 3503 0 
z
M 1159 1731 
Q 1159 1200 1306 963 
Q 1519 619 1900 619 
Q 2203 619 2415 876 
Q 2628 1134 2628 1647 
Q 2628 2219 2422 2470 
Q 2216 2722 1894 2722 
Q 1581 2722 1370 2473 
Q 1159 2225 1159 1731 
z
" transform="scale(0.015625)"/>
        <path id="Arial-BoldMT-65" d="M 2381 1056 
L 3256 909 
Q 3088 428 2723 176 
Q 2359 -75 1813 -75 
Q 947 -75 531 491 
Q 203 944 203 1634 
Q 203 2459 634 2926 
Q 1066 3394 1725 3394 
Q 2466 3394 2894 2905 
Q 3322 2416 3303 1406 
L 1103 1406 
Q 1113 1016 1316 798 
Q 1519 581 1822 581 
Q 2028 581 2168 693 
Q 2309 806 2381 1056 
z
M 2431 1944 
Q 2422 2325 2234 2523 
Q 2047 2722 1778 2722 
Q 1491 2722 1303 2513 
Q 1116 2303 1119 1944 
L 2431 1944 
z
" transform="scale(0.015625)"/>
        <path id="Arial-BoldMT-20" transform="scale(0.015625)"/>
        <path id="Arial-BoldMT-28" d="M 1916 -1347 
L 1313 -1347 
Q 834 -625 584 153 
Q 334 931 334 1659 
Q 334 2563 644 3369 
Q 913 4069 1325 4659 
L 1925 4659 
Q 1497 3713 1336 3048 
Q 1175 2384 1175 1641 
Q 1175 1128 1270 590 
Q 1366 53 1531 -431 
Q 1641 -750 1916 -1347 
z
" transform="scale(0.015625)"/>
        <path id="Arial-BoldMT-47" d="M 2597 1684 
L 2597 2456 
L 4591 2456 
L 4591 631 
Q 4300 350 3748 136 
Q 3197 -78 2631 -78 
Q 1913 -78 1378 223 
Q 844 525 575 1086 
Q 306 1647 306 2306 
Q 306 3022 606 3578 
Q 906 4134 1484 4431 
Q 1925 4659 2581 4659 
Q 3434 4659 3914 4301 
Q 4394 3944 4531 3313 
L 3613 3141 
Q 3516 3478 3248 3673 
Q 2981 3869 2581 3869 
Q 1975 3869 1617 3484 
Q 1259 3100 1259 2344 
Q 1259 1528 1621 1120 
Q 1984 713 2572 713 
Q 2863 713 3155 827 
Q 3447 941 3656 1103 
L 3656 1684 
L 2597 1684 
z
" transform="scale(0.015625)"/>
        <path id="Arial-BoldMT-50" d="M 466 0 
L 466 4581 
L 1950 4581 
Q 2794 4581 3050 4513 
Q 3444 4409 3709 4064 
Q 3975 3719 3975 3172 
Q 3975 2750 3822 2462 
Q 3669 2175 3433 2011 
Q 3197 1847 2953 1794 
Q 2622 1728 1994 1728 
L 1391 1728 
L 1391 0 
L 466 0 
z
M 1391 3806 
L 1391 2506 
L 1897 2506 
Q 2444 2506 2628 2578 
Q 2813 2650 2917 2803 
Q 3022 2956 3022 3159 
Q 3022 3409 2875 3571 
Q 2728 3734 2503 3775 
Q 2338 3806 1838 3806 
L 1391 3806 
z
" transform="scale(0.015625)"/>
        <path id="Arial-BoldMT-55" d="M 459 4581 
L 1384 4581 
L 1384 2100 
Q 1384 1509 1419 1334 
Q 1478 1053 1701 883 
Q 1925 713 2313 713 
Q 2706 713 2906 873 
Q 3106 1034 3147 1268 
Q 3188 1503 3188 2047 
L 3188 4581 
L 4113 4581 
L 4113 2175 
Q 4113 1350 4038 1009 
Q 3963 669 3761 434 
Q 3559 200 3221 61 
Q 2884 -78 2341 -78 
Q 1684 -78 1345 73 
Q 1006 225 809 467 
Q 613 709 550 975 
Q 459 1369 459 2138 
L 459 4581 
z
" transform="scale(0.015625)"/>
        <path id="Arial-BoldMT-29" d="M 216 -1347 
Q 475 -791 581 -494 
Q 688 -197 778 190 
Q 869 578 912 926 
Q 956 1275 956 1641 
Q 956 2384 797 3048 
Q 638 3713 209 4659 
L 806 4659 
Q 1278 3988 1539 3234 
Q 1800 2481 1800 1706 
Q 1800 1053 1594 306 
Q 1359 -531 822 -1347 
L 216 -1347 
z
" transform="scale(0.015625)"/>
       </defs>
       <use xlink:href="#Arial-BoldMT-46"/>
       <use xlink:href="#Arial-BoldMT-75" x="61.083984"/>
       <use xlink:href="#Arial-BoldMT-6c" x="122.167969"/>
       <use xlink:href="#Arial-BoldMT-6c" x="149.951172"/>
       <use xlink:href="#Arial-BoldMT-2d" x="177.734375"/>
       <use xlink:href="#Arial-BoldMT-4d" x="211.035156"/>
       <use xlink:href="#Arial-BoldMT-6f" x="294.335938"/>
       <use xlink:href="#Arial-BoldMT-64" x="355.419922"/>
       <use xlink:href="#Arial-BoldMT-65" x="416.503906"/>
       <use xlink:href="#Arial-BoldMT-6c" x="472.119141"/>
       <use xlink:href="#Arial-BoldMT-20" x="499.902344"/>
       <use xlink:href="#Arial-BoldMT-28" x="527.685547"/>
       <use xlink:href="#Arial-BoldMT-47" x="560.986328"/>
       <use xlink:href="#Arial-BoldMT-50" x="638.769531"/>
       <use xlink:href="#Arial-BoldMT-55" x="705.46875"/>
       <use xlink:href="#Arial-BoldMT-29" x="777.685547"/>
      </g>
     </g>
    </g>
    <g id="xtick_2">
     <g id="text_2">
      <!-- TFLite Model (GPU) -->
      <g style="fill: #262626" transform="translate(217.52743 726.555241) rotate(-45) scale(0.1 -0.1)">
       <defs>
        <path id="Arial-BoldMT-54" d="M 1497 0 
L 1497 3806 
L 138 3806 
L 138 4581 
L 3778 4581 
L 3778 3806 
L 2422 3806 
L 2422 0 
L 1497 0 
z
" transform="scale(0.015625)"/>
        <path id="Arial-BoldMT-4c" d="M 491 0 
L 491 4544 
L 1416 4544 
L 1416 772 
L 3716 772 
L 3716 0 
L 491 0 
z
" transform="scale(0.015625)"/>
        <path id="Arial-BoldMT-69" d="M 459 3769 
L 459 4581 
L 1338 4581 
L 1338 3769 
L 459 3769 
z
M 459 0 
L 459 3319 
L 1338 3319 
L 1338 0 
L 459 0 
z
" transform="scale(0.015625)"/>
        <path id="Arial-BoldMT-74" d="M 1981 3319 
L 1981 2619 
L 1381 2619 
L 1381 1281 
Q 1381 875 1398 808 
Q 1416 741 1477 697 
Q 1538 653 1625 653 
Q 1747 653 1978 738 
L 2053 56 
Q 1747 -75 1359 -75 
Q 1122 -75 931 4 
Q 741 84 652 211 
Q 563 338 528 553 
Q 500 706 500 1172 
L 500 2619 
L 97 2619 
L 97 3319 
L 500 3319 
L 500 3978 
L 1381 4491 
L 1381 3319 
L 1981 3319 
z
" transform="scale(0.015625)"/>
       </defs>
       <use xlink:href="#Arial-BoldMT-54"/>
       <use xlink:href="#Arial-BoldMT-46" x="61.083984"/>
       <use xlink:href="#Arial-BoldMT-4c" x="122.167969"/>
       <use xlink:href="#Arial-BoldMT-69" x="183.251953"/>
       <use xlink:href="#Arial-BoldMT-74" x="211.035156"/>
       <use xlink:href="#Arial-BoldMT-65" x="244.335938"/>
       <use xlink:href="#Arial-BoldMT-20" x="299.951172"/>
       <use xlink:href="#Arial-BoldMT-4d" x="327.734375"/>
       <use xlink:href="#Arial-BoldMT-6f" x="411.035156"/>
       <use xlink:href="#Arial-BoldMT-64" x="472.119141"/>
       <use xlink:href="#Arial-BoldMT-65" x="533.203125"/>
       <use xlink:href="#Arial-BoldMT-6c" x="588.818359"/>
       <use xlink:href="#Arial-BoldMT-20" x="616.601562"/>
       <use xlink:href="#Arial-BoldMT-28" x="644.384766"/>
       <use xlink:href="#Arial-BoldMT-47" x="677.685547"/>
       <use xlink:href="#Arial-BoldMT-50" x="755.46875"/>
       <use xlink:href="#Arial-BoldMT-55" x="822.167969"/>
       <use xlink:href="#Arial-BoldMT-29" x="894.384766"/>
      </g>
     </g>
    </g>
    <g id="xtick_3">
     <g id="text_3">
      <!-- Full-Model (CPU) -->
      <g style="fill: #262626" transform="translate(380.560398 717.910861) rotate(-45) scale(0.1 -0.1)">
       <defs>
        <path id="Arial-BoldMT-43" d="M 3397 1684 
L 4294 1400 
Q 4088 650 3608 286 
Q 3128 -78 2391 -78 
Q 1478 -78 890 545 
Q 303 1169 303 2250 
Q 303 3394 893 4026 
Q 1484 4659 2447 4659 
Q 3288 4659 3813 4163 
Q 4125 3869 4281 3319 
L 3366 3100 
Q 3284 3456 3026 3662 
Q 2769 3869 2400 3869 
Q 1891 3869 1573 3503 
Q 1256 3138 1256 2319 
Q 1256 1450 1568 1081 
Q 1881 713 2381 713 
Q 2750 713 3015 947 
Q 3281 1181 3397 1684 
z
" transform="scale(0.015625)"/>
       </defs>
       <use xlink:href="#Arial-BoldMT-46"/>
       <use xlink:href="#Arial-BoldMT-75" x="61.083984"/>
       <use xlink:href="#Arial-BoldMT-6c" x="122.167969"/>
       <use xlink:href="#Arial-BoldMT-6c" x="149.951172"/>
       <use xlink:href="#Arial-BoldMT-2d" x="177.734375"/>
       <use xlink:href="#Arial-BoldMT-4d" x="211.035156"/>
       <use xlink:href="#Arial-BoldMT-6f" x="294.335938"/>
       <use xlink:href="#Arial-BoldMT-64" x="355.419922"/>
       <use xlink:href="#Arial-BoldMT-65" x="416.503906"/>
       <use xlink:href="#Arial-BoldMT-6c" x="472.119141"/>
       <use xlink:href="#Arial-BoldMT-20" x="499.902344"/>
       <use xlink:href="#Arial-BoldMT-28" x="527.685547"/>
       <use xlink:href="#Arial-BoldMT-43" x="560.986328"/>
       <use xlink:href="#Arial-BoldMT-50" x="633.203125"/>
       <use xlink:href="#Arial-BoldMT-55" x="699.902344"/>
       <use xlink:href="#Arial-BoldMT-29" x="772.119141"/>
      </g>
     </g>
    </g>
    <g id="xtick_4">
     <g id="text_4">
      <!-- TFLite Model (CPU) -->
      <g style="fill: #262626" transform="translate(526.697933 726.161913) rotate(-45) scale(0.1 -0.1)">
       <use xlink:href="#Arial-BoldMT-54"/>
       <use xlink:href="#Arial-BoldMT-46" x="61.083984"/>
       <use xlink:href="#Arial-BoldMT-4c" x="122.167969"/>
       <use xlink:href="#Arial-BoldMT-69" x="183.251953"/>
       <use xlink:href="#Arial-BoldMT-74" x="211.035156"/>
       <use xlink:href="#Arial-BoldMT-65" x="244.335938"/>
       <use xlink:href="#Arial-BoldMT-20" x="299.951172"/>
       <use xlink:href="#Arial-BoldMT-4d" x="327.734375"/>
       <use xlink:href="#Arial-BoldMT-6f" x="411.035156"/>
       <use xlink:href="#Arial-BoldMT-64" x="472.119141"/>
       <use xlink:href="#Arial-BoldMT-65" x="533.203125"/>
       <use xlink:href="#Arial-BoldMT-6c" x="588.818359"/>
       <use xlink:href="#Arial-BoldMT-20" x="616.601562"/>
       <use xlink:href="#Arial-BoldMT-28" x="644.384766"/>
       <use xlink:href="#Arial-BoldMT-43" x="677.685547"/>
       <use xlink:href="#Arial-BoldMT-50" x="749.902344"/>
       <use xlink:href="#Arial-BoldMT-55" x="816.601562"/>
       <use xlink:href="#Arial-BoldMT-29" x="888.818359"/>
      </g>
     </g>
    </g>
    <g id="xtick_5">
     <g id="text_5">
      <!-- ArduinoNanoBLE(Est.) -->
      <g style="fill: #262626" transform="translate(669.692157 737.556276) rotate(-45) scale(0.1 -0.1)">
       <defs>
        <path id="Arial-BoldMT-41" d="M 4597 0 
L 3591 0 
L 3191 1041 
L 1359 1041 
L 981 0 
L 0 0 
L 1784 4581 
L 2763 4581 
L 4597 0 
z
M 2894 1813 
L 2263 3513 
L 1644 1813 
L 2894 1813 
z
" transform="scale(0.015625)"/>
        <path id="Arial-BoldMT-72" d="M 1300 0 
L 422 0 
L 422 3319 
L 1238 3319 
L 1238 2847 
Q 1447 3181 1614 3287 
Q 1781 3394 1994 3394 
Q 2294 3394 2572 3228 
L 2300 2463 
Q 2078 2606 1888 2606 
Q 1703 2606 1575 2504 
Q 1447 2403 1373 2137 
Q 1300 1872 1300 1025 
L 1300 0 
z
" transform="scale(0.015625)"/>
        <path id="Arial-BoldMT-6e" d="M 3478 0 
L 2600 0 
L 2600 1694 
Q 2600 2231 2544 2389 
Q 2488 2547 2361 2634 
Q 2234 2722 2056 2722 
Q 1828 2722 1647 2597 
Q 1466 2472 1398 2265 
Q 1331 2059 1331 1503 
L 1331 0 
L 453 0 
L 453 3319 
L 1269 3319 
L 1269 2831 
Q 1703 3394 2363 3394 
Q 2653 3394 2893 3289 
Q 3134 3184 3257 3021 
Q 3381 2859 3429 2653 
Q 3478 2447 3478 2063 
L 3478 0 
z
" transform="scale(0.015625)"/>
        <path id="Arial-BoldMT-4e" d="M 475 0 
L 475 4581 
L 1375 4581 
L 3250 1522 
L 3250 4581 
L 4109 4581 
L 4109 0 
L 3181 0 
L 1334 2988 
L 1334 0 
L 475 0 
z
" transform="scale(0.015625)"/>
        <path id="Arial-BoldMT-61" d="M 1116 2306 
L 319 2450 
Q 453 2931 781 3162 
Q 1109 3394 1756 3394 
Q 2344 3394 2631 3255 
Q 2919 3116 3036 2902 
Q 3153 2688 3153 2116 
L 3144 1091 
Q 3144 653 3186 445 
Q 3228 238 3344 0 
L 2475 0 
Q 2441 88 2391 259 
Q 2369 338 2359 363 
Q 2134 144 1878 34 
Q 1622 -75 1331 -75 
Q 819 -75 523 203 
Q 228 481 228 906 
Q 228 1188 362 1408 
Q 497 1628 739 1745 
Q 981 1863 1438 1950 
Q 2053 2066 2291 2166 
L 2291 2253 
Q 2291 2506 2166 2614 
Q 2041 2722 1694 2722 
Q 1459 2722 1328 2630 
Q 1197 2538 1116 2306 
z
M 2291 1594 
Q 2122 1538 1756 1459 
Q 1391 1381 1278 1306 
Q 1106 1184 1106 997 
Q 1106 813 1243 678 
Q 1381 544 1594 544 
Q 1831 544 2047 700 
Q 2206 819 2256 991 
Q 2291 1103 2291 1419 
L 2291 1594 
z
" transform="scale(0.015625)"/>
        <path id="Arial-BoldMT-42" d="M 469 4581 
L 2300 4581 
Q 2844 4581 3111 4536 
Q 3378 4491 3589 4347 
Q 3800 4203 3940 3964 
Q 4081 3725 4081 3428 
Q 4081 3106 3907 2837 
Q 3734 2569 3438 2434 
Q 3856 2313 4081 2019 
Q 4306 1725 4306 1328 
Q 4306 1016 4161 720 
Q 4016 425 3764 248 
Q 3513 72 3144 31 
Q 2913 6 2028 0 
L 469 0 
L 469 4581 
z
M 1394 3819 
L 1394 2759 
L 2000 2759 
Q 2541 2759 2672 2775 
Q 2909 2803 3045 2939 
Q 3181 3075 3181 3297 
Q 3181 3509 3064 3642 
Q 2947 3775 2716 3803 
Q 2578 3819 1925 3819 
L 1394 3819 
z
M 1394 1997 
L 1394 772 
L 2250 772 
Q 2750 772 2884 800 
Q 3091 838 3220 983 
Q 3350 1128 3350 1372 
Q 3350 1578 3250 1722 
Q 3150 1866 2961 1931 
Q 2772 1997 2141 1997 
L 1394 1997 
z
" transform="scale(0.015625)"/>
        <path id="Arial-BoldMT-45" d="M 466 0 
L 466 4581 
L 3863 4581 
L 3863 3806 
L 1391 3806 
L 1391 2791 
L 3691 2791 
L 3691 2019 
L 1391 2019 
L 1391 772 
L 3950 772 
L 3950 0 
L 466 0 
z
" transform="scale(0.015625)"/>
        <path id="Arial-BoldMT-73" d="M 150 947 
L 1031 1081 
Q 1088 825 1259 692 
Q 1431 559 1741 559 
Q 2081 559 2253 684 
Q 2369 772 2369 919 
Q 2369 1019 2306 1084 
Q 2241 1147 2013 1200 
Q 950 1434 666 1628 
Q 272 1897 272 2375 
Q 272 2806 612 3100 
Q 953 3394 1669 3394 
Q 2350 3394 2681 3172 
Q 3013 2950 3138 2516 
L 2309 2363 
Q 2256 2556 2107 2659 
Q 1959 2763 1684 2763 
Q 1338 2763 1188 2666 
Q 1088 2597 1088 2488 
Q 1088 2394 1175 2328 
Q 1294 2241 1995 2081 
Q 2697 1922 2975 1691 
Q 3250 1456 3250 1038 
Q 3250 581 2869 253 
Q 2488 -75 1741 -75 
Q 1063 -75 667 200 
Q 272 475 150 947 
z
" transform="scale(0.015625)"/>
        <path id="Arial-BoldMT-2e" d="M 459 0 
L 459 878 
L 1338 878 
L 1338 0 
L 459 0 
z
" transform="scale(0.015625)"/>
       </defs>
       <use xlink:href="#Arial-BoldMT-41"/>
       <use xlink:href="#Arial-BoldMT-72" x="72.216797"/>
       <use xlink:href="#Arial-BoldMT-64" x="111.132812"/>
       <use xlink:href="#Arial-BoldMT-75" x="172.216797"/>
       <use xlink:href="#Arial-BoldMT-69" x="233.300781"/>
       <use xlink:href="#Arial-BoldMT-6e" x="261.083984"/>
       <use xlink:href="#Arial-BoldMT-6f" x="322.167969"/>
       <use xlink:href="#Arial-BoldMT-4e" x="383.251953"/>
       <use xlink:href="#Arial-BoldMT-61" x="455.46875"/>
       <use xlink:href="#Arial-BoldMT-6e" x="511.083984"/>
       <use xlink:href="#Arial-BoldMT-6f" x="572.167969"/>
       <use xlink:href="#Arial-BoldMT-42" x="633.251953"/>
       <use xlink:href="#Arial-BoldMT-4c" x="705.46875"/>
       <use xlink:href="#Arial-BoldMT-45" x="766.552734"/>
       <use xlink:href="#Arial-BoldMT-28" x="833.251953"/>
       <use xlink:href="#Arial-BoldMT-45" x="866.552734"/>
       <use xlink:href="#Arial-BoldMT-73" x="933.251953"/>
       <use xlink:href="#Arial-BoldMT-74" x="988.867188"/>
       <use xlink:href="#Arial-BoldMT-2e" x="1022.167969"/>
       <use xlink:href="#Arial-BoldMT-29" x="1049.951172"/>
      </g>
     </g>
    </g>
    <g id="text_6">
     <!-- Platforms -->
     <g style="fill: #262626" transform="translate(413.630218 750.918109) scale(0.11 -0.11)">
      <defs>
       <path id="Arial-BoldMT-66" d="M 75 3319 
L 563 3319 
L 563 3569 
Q 563 3988 652 4194 
Q 741 4400 980 4529 
Q 1219 4659 1584 4659 
Q 1959 4659 2319 4547 
L 2200 3934 
Q 1991 3984 1797 3984 
Q 1606 3984 1523 3895 
Q 1441 3806 1441 3553 
L 1441 3319 
L 2097 3319 
L 2097 2628 
L 1441 2628 
L 1441 0 
L 563 0 
L 563 2628 
L 75 2628 
L 75 3319 
z
" transform="scale(0.015625)"/>
       <path id="Arial-BoldMT-6d" d="M 394 3319 
L 1203 3319 
L 1203 2866 
Q 1638 3394 2238 3394 
Q 2556 3394 2790 3262 
Q 3025 3131 3175 2866 
Q 3394 3131 3647 3262 
Q 3900 3394 4188 3394 
Q 4553 3394 4806 3245 
Q 5059 3097 5184 2809 
Q 5275 2597 5275 2122 
L 5275 0 
L 4397 0 
L 4397 1897 
Q 4397 2391 4306 2534 
Q 4184 2722 3931 2722 
Q 3747 2722 3584 2609 
Q 3422 2497 3350 2280 
Q 3278 2063 3278 1594 
L 3278 0 
L 2400 0 
L 2400 1819 
Q 2400 2303 2353 2443 
Q 2306 2584 2207 2653 
Q 2109 2722 1941 2722 
Q 1738 2722 1575 2612 
Q 1413 2503 1342 2297 
Q 1272 2091 1272 1613 
L 1272 0 
L 394 0 
L 394 3319 
z
" transform="scale(0.015625)"/>
      </defs>
      <use xlink:href="#Arial-BoldMT-50"/>
      <use xlink:href="#Arial-BoldMT-6c" x="66.699219"/>
      <use xlink:href="#Arial-BoldMT-61" x="94.482422"/>
      <use xlink:href="#Arial-BoldMT-74" x="150.097656"/>
      <use xlink:href="#Arial-BoldMT-66" x="183.398438"/>
      <use xlink:href="#Arial-BoldMT-6f" x="216.699219"/>
      <use xlink:href="#Arial-BoldMT-72" x="277.783203"/>
      <use xlink:href="#Arial-BoldMT-6d" x="316.699219"/>
      <use xlink:href="#Arial-BoldMT-73" x="405.615234"/>
     </g>
    </g>
   </g>
   <g id="matplotlib.axis_2">
    <g id="ytick_1">
     <g id="line2d_1">
      <path d="M 53.025781 648.814732 
L 824.968717 648.814732 
" clip-path="url(#pbeac74e0e4)" style="fill: none; stroke: #ffffff; stroke-linecap: round"/>
     </g>
     <g id="text_7">
      <!-- 0 -->
      <g style="fill: #262626" transform="translate(38.796563 653.46731) scale(0.13 -0.13)">
       <defs>
        <path id="Arial-BoldMT-30" d="M 1756 4600 
Q 2422 4600 2797 4125 
Q 3244 3563 3244 2259 
Q 3244 959 2794 391 
Q 2422 -78 1756 -78 
Q 1088 -78 678 436 
Q 269 950 269 2269 
Q 269 3563 719 4131 
Q 1091 4600 1756 4600 
z
M 1756 3872 
Q 1597 3872 1472 3770 
Q 1347 3669 1278 3406 
Q 1188 3066 1188 2259 
Q 1188 1453 1269 1151 
Q 1350 850 1473 750 
Q 1597 650 1756 650 
Q 1916 650 2041 751 
Q 2166 853 2234 1116 
Q 2325 1453 2325 2259 
Q 2325 3066 2244 3367 
Q 2163 3669 2039 3770 
Q 1916 3872 1756 3872 
z
" transform="scale(0.015625)"/>
       </defs>
       <use xlink:href="#Arial-BoldMT-30"/>
      </g>
     </g>
    </g>
    <g id="ytick_2">
     <g id="line2d_2">
      <path d="M 53.025781 532.6314 
L 824.968717 532.6314 
" clip-path="url(#pbeac74e0e4)" style="fill: none; stroke: #ffffff; stroke-linecap: round"/>
     </g>
     <g id="text_8">
      <!-- 100 -->
      <g style="fill: #262626" transform="translate(24.338125 537.283978) scale(0.13 -0.13)">
       <defs>
        <path id="Arial-BoldMT-31" d="M 2519 0 
L 1641 0 
L 1641 3309 
Q 1159 2859 506 2644 
L 506 3441 
Q 850 3553 1253 3867 
Q 1656 4181 1806 4600 
L 2519 4600 
L 2519 0 
z
" transform="scale(0.015625)"/>
       </defs>
       <use xlink:href="#Arial-BoldMT-31"/>
       <use xlink:href="#Arial-BoldMT-30" x="55.615234"/>
       <use xlink:href="#Arial-BoldMT-30" x="111.230469"/>
      </g>
     </g>
    </g>
    <g id="ytick_3">
     <g id="line2d_3">
      <path d="M 53.025781 416.448068 
L 824.968717 416.448068 
" clip-path="url(#pbeac74e0e4)" style="fill: none; stroke: #ffffff; stroke-linecap: round"/>
     </g>
     <g id="text_9">
      <!-- 200 -->
      <g style="fill: #262626" transform="translate(24.338125 421.100646) scale(0.13 -0.13)">
       <defs>
        <path id="Arial-BoldMT-32" d="M 3238 816 
L 3238 0 
L 159 0 
Q 209 463 459 877 
Q 709 1291 1447 1975 
Q 2041 2528 2175 2725 
Q 2356 2997 2356 3263 
Q 2356 3556 2198 3714 
Q 2041 3872 1763 3872 
Q 1488 3872 1325 3706 
Q 1163 3541 1138 3156 
L 263 3244 
Q 341 3969 753 4284 
Q 1166 4600 1784 4600 
Q 2463 4600 2850 4234 
Q 3238 3869 3238 3325 
Q 3238 3016 3127 2736 
Q 3016 2456 2775 2150 
Q 2616 1947 2200 1565 
Q 1784 1184 1673 1059 
Q 1563 934 1494 816 
L 3238 816 
z
" transform="scale(0.015625)"/>
       </defs>
       <use xlink:href="#Arial-BoldMT-32"/>
       <use xlink:href="#Arial-BoldMT-30" x="55.615234"/>
       <use xlink:href="#Arial-BoldMT-30" x="111.230469"/>
      </g>
     </g>
    </g>
    <g id="ytick_4">
     <g id="line2d_4">
      <path d="M 53.025781 300.264736 
L 824.968717 300.264736 
" clip-path="url(#pbeac74e0e4)" style="fill: none; stroke: #ffffff; stroke-linecap: round"/>
     </g>
     <g id="text_10">
      <!-- 300 -->
      <g style="fill: #262626" transform="translate(24.338125 304.917314) scale(0.13 -0.13)">
       <defs>
        <path id="Arial-BoldMT-33" d="M 241 1216 
L 1091 1319 
Q 1131 994 1309 822 
Q 1488 650 1741 650 
Q 2013 650 2198 856 
Q 2384 1063 2384 1413 
Q 2384 1744 2206 1937 
Q 2028 2131 1772 2131 
Q 1603 2131 1369 2066 
L 1466 2781 
Q 1822 2772 2009 2936 
Q 2197 3100 2197 3372 
Q 2197 3603 2059 3740 
Q 1922 3878 1694 3878 
Q 1469 3878 1309 3722 
Q 1150 3566 1116 3266 
L 306 3403 
Q 391 3819 561 4067 
Q 731 4316 1036 4458 
Q 1341 4600 1719 4600 
Q 2366 4600 2756 4188 
Q 3078 3850 3078 3425 
Q 3078 2822 2419 2463 
Q 2813 2378 3048 2084 
Q 3284 1791 3284 1375 
Q 3284 772 2843 347 
Q 2403 -78 1747 -78 
Q 1125 -78 715 280 
Q 306 638 241 1216 
z
" transform="scale(0.015625)"/>
       </defs>
       <use xlink:href="#Arial-BoldMT-33"/>
       <use xlink:href="#Arial-BoldMT-30" x="55.615234"/>
       <use xlink:href="#Arial-BoldMT-30" x="111.230469"/>
      </g>
     </g>
    </g>
    <g id="ytick_5">
     <g id="line2d_5">
      <path d="M 53.025781 184.081404 
L 824.968717 184.081404 
" clip-path="url(#pbeac74e0e4)" style="fill: none; stroke: #ffffff; stroke-linecap: round"/>
     </g>
     <g id="text_11">
      <!-- 400 -->
      <g style="fill: #262626" transform="translate(24.338125 188.733982) scale(0.13 -0.13)">
       <defs>
        <path id="Arial-BoldMT-34" d="M 1994 0 
L 1994 922 
L 119 922 
L 119 1691 
L 2106 4600 
L 2844 4600 
L 2844 1694 
L 3413 1694 
L 3413 922 
L 2844 922 
L 2844 0 
L 1994 0 
z
M 1994 1694 
L 1994 3259 
L 941 1694 
L 1994 1694 
z
" transform="scale(0.015625)"/>
       </defs>
       <use xlink:href="#Arial-BoldMT-34"/>
       <use xlink:href="#Arial-BoldMT-30" x="55.615234"/>
       <use xlink:href="#Arial-BoldMT-30" x="111.230469"/>
      </g>
     </g>
    </g>
    <g id="ytick_6">
     <g id="line2d_6">
      <path d="M 53.025781 67.898072 
L 824.968717 67.898072 
" clip-path="url(#pbeac74e0e4)" style="fill: none; stroke: #ffffff; stroke-linecap: round"/>
     </g>
     <g id="text_12">
      <!-- 500 -->
      <g style="fill: #262626" transform="translate(24.338125 72.55065) scale(0.13 -0.13)">
       <defs>
        <path id="Arial-BoldMT-35" d="M 284 1178 
L 1159 1269 
Q 1197 972 1381 798 
Q 1566 625 1806 625 
Q 2081 625 2272 848 
Q 2463 1072 2463 1522 
Q 2463 1944 2273 2155 
Q 2084 2366 1781 2366 
Q 1403 2366 1103 2031 
L 391 2134 
L 841 4519 
L 3163 4519 
L 3163 3697 
L 1506 3697 
L 1369 2919 
Q 1663 3066 1969 3066 
Q 2553 3066 2959 2641 
Q 3366 2216 3366 1538 
Q 3366 972 3038 528 
Q 2591 -78 1797 -78 
Q 1163 -78 763 262 
Q 363 603 284 1178 
z
" transform="scale(0.015625)"/>
       </defs>
       <use xlink:href="#Arial-BoldMT-35"/>
       <use xlink:href="#Arial-BoldMT-30" x="55.615234"/>
       <use xlink:href="#Arial-BoldMT-30" x="111.230469"/>
      </g>
     </g>
    </g>
    <g id="text_13">
     <!-- Time (ms) -->
     <g style="fill: #262626" transform="translate(17.391562 369.769397) rotate(-90) scale(0.14 -0.14)">
      <use xlink:href="#Arial-BoldMT-54"/>
      <use xlink:href="#Arial-BoldMT-69" x="59.333984"/>
      <use xlink:href="#Arial-BoldMT-6d" x="87.117188"/>
      <use xlink:href="#Arial-BoldMT-65" x="176.033203"/>
      <use xlink:href="#Arial-BoldMT-20" x="231.648438"/>
      <use xlink:href="#Arial-BoldMT-28" x="259.431641"/>
      <use xlink:href="#Arial-BoldMT-6d" x="292.732422"/>
      <use xlink:href="#Arial-BoldMT-73" x="381.648438"/>
      <use xlink:href="#Arial-BoldMT-29" x="437.263672"/>
     </g>
    </g>
   </g>
   <g id="patch_3">
    <path d="M 68.46464 648.814732 
L 191.97551 648.814732 
L 191.97551 640.100982 
L 68.46464 640.100982 
z
" clip-path="url(#pbeac74e0e4)" style="fill: #4b4279; stroke: #ffffff; stroke-width: 0.3; stroke-linejoin: miter"/>
   </g>
   <g id="patch_4">
    <path d="M 222.853227 648.814732 
L 346.364097 648.814732 
L 346.364097 574.80595 
L 222.853227 574.80595 
z
" clip-path="url(#pbeac74e0e4)" style="fill: #3c6682; stroke: #ffffff; stroke-width: 0.3; stroke-linejoin: miter"/>
   </g>
   <g id="patch_5">
    <path d="M 377.241814 648.814732 
L 500.752684 648.814732 
L 500.752684 618.955616 
L 377.241814 618.955616 
z
" clip-path="url(#pbeac74e0e4)" style="fill: #2f837f; stroke: #ffffff; stroke-width: 0.3; stroke-linejoin: miter"/>
   </g>
   <g id="patch_6">
    <path d="M 531.630401 648.814732 
L 655.141271 648.814732 
L 655.141271 434.340301 
L 531.630401 434.340301 
z
" clip-path="url(#pbeac74e0e4)" style="fill: #45a778; stroke: #ffffff; stroke-width: 0.3; stroke-linejoin: miter"/>
   </g>
   <g id="patch_7">
    <path d="M 686.018988 648.814732 
L 809.529858 648.814732 
L 809.529858 54.560225 
L 686.018988 54.560225 
z
" clip-path="url(#pbeac74e0e4)" style="fill: #8fc456; stroke: #ffffff; stroke-width: 0.3; stroke-linejoin: miter"/>
   </g>
   <g id="line2d_7">
    <path clip-path="url(#pbeac74e0e4)" style="fill: none; stroke: #424242; stroke-width: 2.625; stroke-linecap: round"/>
   </g>
   <g id="line2d_8">
    <path clip-path="url(#pbeac74e0e4)" style="fill: none; stroke: #424242; stroke-width: 2.625; stroke-linecap: round"/>
   </g>
   <g id="line2d_9">
    <path clip-path="url(#pbeac74e0e4)" style="fill: none; stroke: #424242; stroke-width: 2.625; stroke-linecap: round"/>
   </g>
   <g id="line2d_10">
    <path clip-path="url(#pbeac74e0e4)" style="fill: none; stroke: #424242; stroke-width: 2.625; stroke-linecap: round"/>
   </g>
   <g id="line2d_11">
    <path clip-path="url(#pbeac74e0e4)" style="fill: none; stroke: #424242; stroke-width: 2.625; stroke-linecap: round"/>
   </g>
   <g id="patch_8">
    <path d="M 53.025781 648.814732 
L 53.025781 24.8475 
" style="fill: none"/>
   </g>
   <g id="patch_9">
    <path d="M 824.968717 648.814732 
L 824.968717 24.8475 
" style="fill: none"/>
   </g>
   <g id="patch_10">
    <path d="M 53.025781 648.814732 
L 824.968717 648.814732 
" style="fill: none"/>
   </g>
   <g id="patch_11">
    <path d="M 53.025781 24.8475 
L 824.968717 24.8475 
" style="fill: none"/>
   </g>
   <g id="text_14">
    <!-- 7.5 ms -->
    <g style="fill: #262626" transform="translate(105.315075 638.939149) scale(0.16 -0.16)">
     <defs>
      <path id="Arial-BoldMT-37" d="M 272 3703 
L 272 4519 
L 3275 4519 
L 3275 3881 
Q 2903 3516 2518 2831 
Q 2134 2147 1932 1376 
Q 1731 606 1734 0 
L 888 0 
Q 909 950 1279 1937 
Q 1650 2925 2269 3703 
L 272 3703 
z
" transform="scale(0.015625)"/>
     </defs>
     <use xlink:href="#Arial-BoldMT-37"/>
     <use xlink:href="#Arial-BoldMT-2e" x="55.615234"/>
     <use xlink:href="#Arial-BoldMT-35" x="83.398438"/>
     <use xlink:href="#Arial-BoldMT-20" x="139.013672"/>
     <use xlink:href="#Arial-BoldMT-6d" x="166.796875"/>
     <use xlink:href="#Arial-BoldMT-73" x="255.712891"/>
    </g>
   </g>
   <g id="text_15">
    <!-- 63.7 ms -->
    <g style="fill: #262626" transform="translate(255.254912 573.644116) scale(0.16 -0.16)">
     <defs>
      <path id="Arial-BoldMT-36" d="M 3247 3459 
L 2397 3366 
Q 2366 3628 2234 3753 
Q 2103 3878 1894 3878 
Q 1616 3878 1423 3628 
Q 1231 3378 1181 2588 
Q 1509 2975 1997 2975 
Q 2547 2975 2939 2556 
Q 3331 2138 3331 1475 
Q 3331 772 2918 347 
Q 2506 -78 1859 -78 
Q 1166 -78 719 461 
Q 272 1000 272 2228 
Q 272 3488 737 4044 
Q 1203 4600 1947 4600 
Q 2469 4600 2811 4308 
Q 3153 4016 3247 3459 
z
M 1256 1544 
Q 1256 1116 1453 883 
Q 1650 650 1903 650 
Q 2147 650 2309 840 
Q 2472 1031 2472 1466 
Q 2472 1913 2297 2120 
Q 2122 2328 1859 2328 
Q 1606 2328 1431 2129 
Q 1256 1931 1256 1544 
z
" transform="scale(0.015625)"/>
     </defs>
     <use xlink:href="#Arial-BoldMT-36"/>
     <use xlink:href="#Arial-BoldMT-33" x="55.615234"/>
     <use xlink:href="#Arial-BoldMT-2e" x="111.230469"/>
     <use xlink:href="#Arial-BoldMT-37" x="139.013672"/>
     <use xlink:href="#Arial-BoldMT-20" x="194.628906"/>
     <use xlink:href="#Arial-BoldMT-6d" x="222.412109"/>
     <use xlink:href="#Arial-BoldMT-73" x="311.328125"/>
    </g>
   </g>
   <g id="text_16">
    <!-- 25.7 ms -->
    <g style="fill: #262626" transform="translate(409.643499 617.793783) scale(0.16 -0.16)">
     <use xlink:href="#Arial-BoldMT-32"/>
     <use xlink:href="#Arial-BoldMT-35" x="55.615234"/>
     <use xlink:href="#Arial-BoldMT-2e" x="111.230469"/>
     <use xlink:href="#Arial-BoldMT-37" x="139.013672"/>
     <use xlink:href="#Arial-BoldMT-20" x="194.628906"/>
     <use xlink:href="#Arial-BoldMT-6d" x="222.412109"/>
     <use xlink:href="#Arial-BoldMT-73" x="311.328125"/>
    </g>
   </g>
   <g id="text_17">
    <!-- 184.6 ms -->
    <g style="fill: #262626" transform="translate(559.583336 433.178468) scale(0.16 -0.16)">
     <defs>
      <path id="Arial-BoldMT-38" d="M 1025 2472 
Q 684 2616 529 2867 
Q 375 3119 375 3419 
Q 375 3931 733 4265 
Q 1091 4600 1750 4600 
Q 2403 4600 2764 4265 
Q 3125 3931 3125 3419 
Q 3125 3100 2959 2851 
Q 2794 2603 2494 2472 
Q 2875 2319 3073 2025 
Q 3272 1731 3272 1347 
Q 3272 713 2867 316 
Q 2463 -81 1791 -81 
Q 1166 -81 750 247 
Q 259 634 259 1309 
Q 259 1681 443 1992 
Q 628 2303 1025 2472 
z
M 1206 3356 
Q 1206 3094 1354 2947 
Q 1503 2800 1750 2800 
Q 2000 2800 2150 2948 
Q 2300 3097 2300 3359 
Q 2300 3606 2151 3754 
Q 2003 3903 1759 3903 
Q 1506 3903 1356 3753 
Q 1206 3603 1206 3356 
z
M 1125 1394 
Q 1125 1031 1311 828 
Q 1497 625 1775 625 
Q 2047 625 2225 820 
Q 2403 1016 2403 1384 
Q 2403 1706 2222 1901 
Q 2041 2097 1763 2097 
Q 1441 2097 1283 1875 
Q 1125 1653 1125 1394 
z
" transform="scale(0.015625)"/>
     </defs>
     <use xlink:href="#Arial-BoldMT-31"/>
     <use xlink:href="#Arial-BoldMT-38" x="55.615234"/>
     <use xlink:href="#Arial-BoldMT-34" x="111.230469"/>
     <use xlink:href="#Arial-BoldMT-2e" x="166.845703"/>
     <use xlink:href="#Arial-BoldMT-36" x="194.628906"/>
     <use xlink:href="#Arial-BoldMT-20" x="250.244141"/>
     <use xlink:href="#Arial-BoldMT-6d" x="278.027344"/>
     <use xlink:href="#Arial-BoldMT-73" x="366.943359"/>
    </g>
   </g>
   <g id="text_18">
    <!-- 511.5 ms -->
    <g style="fill: #262626" transform="translate(714.411923 53.398392) scale(0.16 -0.16)">
     <use xlink:href="#Arial-BoldMT-35"/>
     <use xlink:href="#Arial-BoldMT-31" x="55.615234"/>
     <use xlink:href="#Arial-BoldMT-31" x="105.730469"/>
     <use xlink:href="#Arial-BoldMT-2e" x="161.345703"/>
     <use xlink:href="#Arial-BoldMT-35" x="189.128906"/>
     <use xlink:href="#Arial-BoldMT-20" x="244.744141"/>
     <use xlink:href="#Arial-BoldMT-6d" x="272.527344"/>
     <use xlink:href="#Arial-BoldMT-73" x="361.443359"/>
    </g>
   </g>
   <g id="text_19">
    <!-- Inference Time Comparison -->
    <g style="fill: #262626" transform="translate(333.783499 18.8475) scale(0.16 -0.16)">
     <defs>
      <path id="Arial-BoldMT-49" d="M 438 0 
L 438 4581 
L 1363 4581 
L 1363 0 
L 438 0 
z
" transform="scale(0.015625)"/>
      <path id="Arial-BoldMT-63" d="M 3353 2338 
L 2488 2181 
Q 2444 2441 2289 2572 
Q 2134 2703 1888 2703 
Q 1559 2703 1364 2476 
Q 1169 2250 1169 1719 
Q 1169 1128 1367 884 
Q 1566 641 1900 641 
Q 2150 641 2309 783 
Q 2469 925 2534 1272 
L 3397 1125 
Q 3263 531 2881 228 
Q 2500 -75 1859 -75 
Q 1131 -75 698 384 
Q 266 844 266 1656 
Q 266 2478 700 2936 
Q 1134 3394 1875 3394 
Q 2481 3394 2839 3133 
Q 3197 2872 3353 2338 
z
" transform="scale(0.015625)"/>
      <path id="Arial-BoldMT-70" d="M 434 3319 
L 1253 3319 
L 1253 2831 
Q 1413 3081 1684 3237 
Q 1956 3394 2288 3394 
Q 2866 3394 3269 2941 
Q 3672 2488 3672 1678 
Q 3672 847 3265 386 
Q 2859 -75 2281 -75 
Q 2006 -75 1782 34 
Q 1559 144 1313 409 
L 1313 -1263 
L 434 -1263 
L 434 3319 
z
M 1303 1716 
Q 1303 1156 1525 889 
Q 1747 622 2066 622 
Q 2372 622 2575 867 
Q 2778 1113 2778 1672 
Q 2778 2194 2568 2447 
Q 2359 2700 2050 2700 
Q 1728 2700 1515 2451 
Q 1303 2203 1303 1716 
z
" transform="scale(0.015625)"/>
     </defs>
     <use xlink:href="#Arial-BoldMT-49"/>
     <use xlink:href="#Arial-BoldMT-6e" x="27.783203"/>
     <use xlink:href="#Arial-BoldMT-66" x="88.867188"/>
     <use xlink:href="#Arial-BoldMT-65" x="122.167969"/>
     <use xlink:href="#Arial-BoldMT-72" x="177.783203"/>
     <use xlink:href="#Arial-BoldMT-65" x="216.699219"/>
     <use xlink:href="#Arial-BoldMT-6e" x="272.314453"/>
     <use xlink:href="#Arial-BoldMT-63" x="333.398438"/>
     <use xlink:href="#Arial-BoldMT-65" x="389.013672"/>
     <use xlink:href="#Arial-BoldMT-20" x="444.628906"/>
     <use xlink:href="#Arial-BoldMT-54" x="472.412109"/>
     <use xlink:href="#Arial-BoldMT-69" x="531.746094"/>
     <use xlink:href="#Arial-BoldMT-6d" x="559.529297"/>
     <use xlink:href="#Arial-BoldMT-65" x="648.445312"/>
     <use xlink:href="#Arial-BoldMT-20" x="704.060547"/>
     <use xlink:href="#Arial-BoldMT-43" x="731.84375"/>
     <use xlink:href="#Arial-BoldMT-6f" x="804.060547"/>
     <use xlink:href="#Arial-BoldMT-6d" x="865.144531"/>
     <use xlink:href="#Arial-BoldMT-70" x="954.060547"/>
     <use xlink:href="#Arial-BoldMT-61" x="1015.144531"/>
     <use xlink:href="#Arial-BoldMT-72" x="1070.759766"/>
     <use xlink:href="#Arial-BoldMT-69" x="1109.675781"/>
     <use xlink:href="#Arial-BoldMT-73" x="1137.458984"/>
     <use xlink:href="#Arial-BoldMT-6f" x="1193.074219"/>
     <use xlink:href="#Arial-BoldMT-6e" x="1254.158203"/>
    </g>
   </g>
  </g>
  <g id="axes_2">
   <g id="patch_12">
    <path d="M 977.858717 648.814732 
L 1749.801652 648.814732 
L 1749.801652 24.8475 
L 977.858717 24.8475 
z
" style="fill: #eaeaf2"/>
   </g>
   <g id="matplotlib.axis_3">
    <g id="xtick_6">
     <g id="line2d_12">
      <path d="M 1323.77951 648.814732 
L 1323.77951 24.8475 
" clip-path="url(#p9a7f84ff70)" style="fill: none; stroke: #ffffff; stroke-opacity: 0.2; stroke-linecap: round"/>
     </g>
     <g id="text_20">
      <!-- $\mathdefault{10^{0}}$ -->
      <g style="fill: #262626" transform="translate(1314.35951 668.206607) scale(0.12 -0.12)">
       <use xlink:href="#Arial-BoldMT-31" transform="translate(0 0.99375)"/>
       <use xlink:href="#Arial-BoldMT-30" transform="translate(55.615234 0.99375)"/>
       <use xlink:href="#Arial-BoldMT-30" transform="translate(112.972813 70.6875) scale(0.7)"/>
      </g>
     </g>
    </g>
    <g id="xtick_7">
     <g id="line2d_13">
      <path d="M 1701.045174 648.814732 
L 1701.045174 24.8475 
" clip-path="url(#p9a7f84ff70)" style="fill: none; stroke: #ffffff; stroke-opacity: 0.2; stroke-linecap: round"/>
     </g>
     <g id="text_21">
      <!-- $\mathdefault{10^{1}}$ -->
      <g style="fill: #262626" transform="translate(1691.625174 668.206607) scale(0.12 -0.12)">
       <use xlink:href="#Arial-BoldMT-31" transform="translate(0 0.99375)"/>
       <use xlink:href="#Arial-BoldMT-30" transform="translate(55.615234 0.99375)"/>
       <use xlink:href="#Arial-BoldMT-31" transform="translate(112.972813 70.6875) scale(0.7)"/>
      </g>
     </g>
    </g>
    <g id="xtick_8">
     <g id="line2d_14">
      <path d="M 1060.082127 648.814732 
L 1060.082127 24.8475 
" clip-path="url(#p9a7f84ff70)" style="fill: none; stroke: #ffffff; stroke-opacity: 0.2; stroke-linecap: round"/>
     </g>
    </g>
    <g id="xtick_9">
     <g id="line2d_15">
      <path d="M 1126.515313 648.814732 
L 1126.515313 24.8475 
" clip-path="url(#p9a7f84ff70)" style="fill: none; stroke: #ffffff; stroke-opacity: 0.2; stroke-linecap: round"/>
     </g>
    </g>
    <g id="xtick_10">
     <g id="line2d_16">
      <path d="M 1173.650408 648.814732 
L 1173.650408 24.8475 
" clip-path="url(#p9a7f84ff70)" style="fill: none; stroke: #ffffff; stroke-opacity: 0.2; stroke-linecap: round"/>
     </g>
    </g>
    <g id="xtick_11">
     <g id="line2d_17">
      <path d="M 1210.211229 648.814732 
L 1210.211229 24.8475 
" clip-path="url(#p9a7f84ff70)" style="fill: none; stroke: #ffffff; stroke-opacity: 0.2; stroke-linecap: round"/>
     </g>
    </g>
    <g id="xtick_12">
     <g id="line2d_18">
      <path d="M 1240.083594 648.814732 
L 1240.083594 24.8475 
" clip-path="url(#p9a7f84ff70)" style="fill: none; stroke: #ffffff; stroke-opacity: 0.2; stroke-linecap: round"/>
     </g>
    </g>
    <g id="xtick_13">
     <g id="line2d_19">
      <path d="M 1265.340319 648.814732 
L 1265.340319 24.8475 
" clip-path="url(#p9a7f84ff70)" style="fill: none; stroke: #ffffff; stroke-opacity: 0.2; stroke-linecap: round"/>
     </g>
    </g>
    <g id="xtick_14">
     <g id="line2d_20">
      <path d="M 1287.21869 648.814732 
L 1287.21869 24.8475 
" clip-path="url(#p9a7f84ff70)" style="fill: none; stroke: #ffffff; stroke-opacity: 0.2; stroke-linecap: round"/>
     </g>
    </g>
    <g id="xtick_15">
     <g id="line2d_21">
      <path d="M 1306.51678 648.814732 
L 1306.51678 24.8475 
" clip-path="url(#p9a7f84ff70)" style="fill: none; stroke: #ffffff; stroke-opacity: 0.2; stroke-linecap: round"/>
     </g>
    </g>
    <g id="xtick_16">
     <g id="line2d_22">
      <path d="M 1437.347791 648.814732 
L 1437.347791 24.8475 
" clip-path="url(#p9a7f84ff70)" style="fill: none; stroke: #ffffff; stroke-opacity: 0.2; stroke-linecap: round"/>
     </g>
    </g>
    <g id="xtick_17">
     <g id="line2d_23">
      <path d="M 1503.780977 648.814732 
L 1503.780977 24.8475 
" clip-path="url(#p9a7f84ff70)" style="fill: none; stroke: #ffffff; stroke-opacity: 0.2; stroke-linecap: round"/>
     </g>
    </g>
    <g id="xtick_18">
     <g id="line2d_24">
      <path d="M 1550.916072 648.814732 
L 1550.916072 24.8475 
" clip-path="url(#p9a7f84ff70)" style="fill: none; stroke: #ffffff; stroke-opacity: 0.2; stroke-linecap: round"/>
     </g>
    </g>
    <g id="xtick_19">
     <g id="line2d_25">
      <path d="M 1587.476893 648.814732 
L 1587.476893 24.8475 
" clip-path="url(#p9a7f84ff70)" style="fill: none; stroke: #ffffff; stroke-opacity: 0.2; stroke-linecap: round"/>
     </g>
    </g>
    <g id="xtick_20">
     <g id="line2d_26">
      <path d="M 1617.349258 648.814732 
L 1617.349258 24.8475 
" clip-path="url(#p9a7f84ff70)" style="fill: none; stroke: #ffffff; stroke-opacity: 0.2; stroke-linecap: round"/>
     </g>
    </g>
    <g id="xtick_21">
     <g id="line2d_27">
      <path d="M 1642.605983 648.814732 
L 1642.605983 24.8475 
" clip-path="url(#p9a7f84ff70)" style="fill: none; stroke: #ffffff; stroke-opacity: 0.2; stroke-linecap: round"/>
     </g>
    </g>
    <g id="xtick_22">
     <g id="line2d_28">
      <path d="M 1664.484353 648.814732 
L 1664.484353 24.8475 
" clip-path="url(#p9a7f84ff70)" style="fill: none; stroke: #ffffff; stroke-opacity: 0.2; stroke-linecap: round"/>
     </g>
    </g>
    <g id="xtick_23">
     <g id="line2d_29">
      <path d="M 1683.782444 648.814732 
L 1683.782444 24.8475 
" clip-path="url(#p9a7f84ff70)" style="fill: none; stroke: #ffffff; stroke-opacity: 0.2; stroke-linecap: round"/>
     </g>
    </g>
    <g id="text_22">
     <!-- Memory (MB) -->
     <g style="fill: #262626" transform="translate(1319.497216 684.766295) scale(0.14 -0.14)">
      <defs>
       <path id="Arial-BoldMT-79" d="M 44 3319 
L 978 3319 
L 1772 963 
L 2547 3319 
L 3456 3319 
L 2284 125 
L 2075 -453 
Q 1959 -744 1854 -897 
Q 1750 -1050 1614 -1145 
Q 1478 -1241 1279 -1294 
Q 1081 -1347 831 -1347 
Q 578 -1347 334 -1294 
L 256 -606 
Q 463 -647 628 -647 
Q 934 -647 1081 -467 
Q 1228 -288 1306 -9 
L 44 3319 
z
" transform="scale(0.015625)"/>
      </defs>
      <use xlink:href="#Arial-BoldMT-4d"/>
      <use xlink:href="#Arial-BoldMT-65" x="83.300781"/>
      <use xlink:href="#Arial-BoldMT-6d" x="138.916016"/>
      <use xlink:href="#Arial-BoldMT-6f" x="227.832031"/>
      <use xlink:href="#Arial-BoldMT-72" x="288.916016"/>
      <use xlink:href="#Arial-BoldMT-79" x="327.832031"/>
      <use xlink:href="#Arial-BoldMT-20" x="383.447266"/>
      <use xlink:href="#Arial-BoldMT-28" x="411.230469"/>
      <use xlink:href="#Arial-BoldMT-4d" x="444.53125"/>
      <use xlink:href="#Arial-BoldMT-42" x="527.832031"/>
      <use xlink:href="#Arial-BoldMT-29" x="600.048828"/>
     </g>
    </g>
   </g>
   <g id="matplotlib.axis_4">
    <g id="ytick_7">
     <g id="line2d_30">
      <path d="M 977.858717 555.001477 
L 1749.801652 555.001477 
" clip-path="url(#p9a7f84ff70)" style="fill: none; stroke: #ffffff; stroke-opacity: 0.2; stroke-linecap: round"/>
     </g>
     <g id="text_23">
      <!-- Full Model -->
      <g style="fill: #262626" transform="translate(911.537467 559.296165) scale(0.12 -0.12)">
       <use xlink:href="#Arial-BoldMT-46"/>
       <use xlink:href="#Arial-BoldMT-75" x="61.083984"/>
       <use xlink:href="#Arial-BoldMT-6c" x="122.167969"/>
       <use xlink:href="#Arial-BoldMT-6c" x="149.951172"/>
       <use xlink:href="#Arial-BoldMT-20" x="177.734375"/>
       <use xlink:href="#Arial-BoldMT-4d" x="205.517578"/>
       <use xlink:href="#Arial-BoldMT-6f" x="288.818359"/>
       <use xlink:href="#Arial-BoldMT-64" x="349.902344"/>
       <use xlink:href="#Arial-BoldMT-65" x="410.986328"/>
       <use xlink:href="#Arial-BoldMT-6c" x="466.601562"/>
      </g>
     </g>
    </g>
    <g id="ytick_8">
     <g id="line2d_31">
      <path d="M 977.858717 336.831116 
L 1749.801652 336.831116 
" clip-path="url(#p9a7f84ff70)" style="fill: none; stroke: #ffffff; stroke-opacity: 0.2; stroke-linecap: round"/>
     </g>
     <g id="text_24">
      <!-- TFLite Model -->
      <g style="fill: #262626" transform="translate(896.873092 341.125804) scale(0.12 -0.12)">
       <use xlink:href="#Arial-BoldMT-54"/>
       <use xlink:href="#Arial-BoldMT-46" x="61.083984"/>
       <use xlink:href="#Arial-BoldMT-4c" x="122.167969"/>
       <use xlink:href="#Arial-BoldMT-69" x="183.251953"/>
       <use xlink:href="#Arial-BoldMT-74" x="211.035156"/>
       <use xlink:href="#Arial-BoldMT-65" x="244.335938"/>
       <use xlink:href="#Arial-BoldMT-20" x="299.951172"/>
       <use xlink:href="#Arial-BoldMT-4d" x="327.734375"/>
       <use xlink:href="#Arial-BoldMT-6f" x="411.035156"/>
       <use xlink:href="#Arial-BoldMT-64" x="472.119141"/>
       <use xlink:href="#Arial-BoldMT-65" x="533.203125"/>
       <use xlink:href="#Arial-BoldMT-6c" x="588.818359"/>
      </g>
     </g>
    </g>
    <g id="ytick_9">
     <g id="line2d_32">
      <path d="M 977.858717 118.660755 
L 1749.801652 118.660755 
" clip-path="url(#p9a7f84ff70)" style="fill: none; stroke: #ffffff; stroke-opacity: 0.2; stroke-linecap: round"/>
     </g>
     <g id="text_25">
      <!-- Arduino (TFLite Micro) -->
      <g style="fill: #262626" transform="translate(842.218717 123.028568) scale(0.12 -0.12)">
       <use xlink:href="#Arial-BoldMT-41"/>
       <use xlink:href="#Arial-BoldMT-72" x="72.216797"/>
       <use xlink:href="#Arial-BoldMT-64" x="111.132812"/>
       <use xlink:href="#Arial-BoldMT-75" x="172.216797"/>
       <use xlink:href="#Arial-BoldMT-69" x="233.300781"/>
       <use xlink:href="#Arial-BoldMT-6e" x="261.083984"/>
       <use xlink:href="#Arial-BoldMT-6f" x="322.167969"/>
       <use xlink:href="#Arial-BoldMT-20" x="383.251953"/>
       <use xlink:href="#Arial-BoldMT-28" x="411.035156"/>
       <use xlink:href="#Arial-BoldMT-54" x="444.335938"/>
       <use xlink:href="#Arial-BoldMT-46" x="505.419922"/>
       <use xlink:href="#Arial-BoldMT-4c" x="566.503906"/>
       <use xlink:href="#Arial-BoldMT-69" x="627.587891"/>
       <use xlink:href="#Arial-BoldMT-74" x="655.371094"/>
       <use xlink:href="#Arial-BoldMT-65" x="688.671875"/>
       <use xlink:href="#Arial-BoldMT-20" x="744.287109"/>
       <use xlink:href="#Arial-BoldMT-4d" x="772.070312"/>
       <use xlink:href="#Arial-BoldMT-69" x="855.371094"/>
       <use xlink:href="#Arial-BoldMT-63" x="883.154297"/>
       <use xlink:href="#Arial-BoldMT-72" x="938.769531"/>
       <use xlink:href="#Arial-BoldMT-6f" x="977.685547"/>
       <use xlink:href="#Arial-BoldMT-29" x="1038.769531"/>
      </g>
     </g>
    </g>
   </g>
   <g id="patch_13">
    <path d="M -375941.884294 620.452585 
L 1714.713337 620.452585 
L 1714.713337 489.550369 
L -375941.884294 489.550369 
z
" clip-path="url(#p9a7f84ff70)" style="fill: #440154; stroke: #ffffff; stroke-width: 0.3; stroke-linejoin: miter"/>
   </g>
   <g id="patch_14">
    <path d="M -375941.884294 402.282224 
L 1498.226398 402.282224 
L 1498.226398 271.380008 
L -375941.884294 271.380008 
z
" clip-path="url(#p9a7f84ff70)" style="fill: #21918c; stroke: #ffffff; stroke-width: 0.3; stroke-linejoin: miter"/>
   </g>
   <g id="patch_15">
    <path d="M -375941.884294 184.111863 
L 1012.947032 184.111863 
L 1012.947032 53.209647 
L -375941.884294 53.209647 
z
" clip-path="url(#p9a7f84ff70)" style="fill: #fde725; stroke: #ffffff; stroke-width: 0.3; stroke-linejoin: miter"/>
   </g>
   <g id="patch_16">
    <path d="M 977.858717 648.814732 
L 977.858717 24.8475 
" style="fill: none"/>
   </g>
   <g id="patch_17">
    <path d="M 1749.801652 648.814732 
L 1749.801652 24.8475 
" style="fill: none"/>
   </g>
   <g id="patch_18">
    <path d="M 977.858717 648.814732 
L 1749.801652 648.814732 
" style="fill: none"/>
   </g>
   <g id="patch_19">
    <path d="M 977.858717 24.8475 
L 1749.801652 24.8475 
" style="fill: none"/>
   </g>
   <g id="text_26">
    <!-- 10.9 MB -->
    <g style="fill: #262626" transform="translate(1722.707332 558.112102) scale(0.12 -0.12)">
     <defs>
      <path id="Arial-BoldMT-39" d="M 291 1059 
L 1141 1153 
Q 1172 894 1303 769 
Q 1434 644 1650 644 
Q 1922 644 2112 894 
Q 2303 1144 2356 1931 
Q 2025 1547 1528 1547 
Q 988 1547 595 1964 
Q 203 2381 203 3050 
Q 203 3747 617 4173 
Q 1031 4600 1672 4600 
Q 2369 4600 2816 4061 
Q 3263 3522 3263 2288 
Q 3263 1031 2797 475 
Q 2331 -81 1584 -81 
Q 1047 -81 715 205 
Q 384 491 291 1059 
z
M 2278 2978 
Q 2278 3403 2083 3637 
Q 1888 3872 1631 3872 
Q 1388 3872 1227 3680 
Q 1066 3488 1066 3050 
Q 1066 2606 1241 2398 
Q 1416 2191 1678 2191 
Q 1931 2191 2104 2391 
Q 2278 2591 2278 2978 
z
" transform="scale(0.015625)"/>
     </defs>
     <use xlink:href="#Arial-BoldMT-31"/>
     <use xlink:href="#Arial-BoldMT-30" x="55.615234"/>
     <use xlink:href="#Arial-BoldMT-2e" x="111.230469"/>
     <use xlink:href="#Arial-BoldMT-39" x="139.013672"/>
     <use xlink:href="#Arial-BoldMT-20" x="194.628906"/>
     <use xlink:href="#Arial-BoldMT-4d" x="222.412109"/>
     <use xlink:href="#Arial-BoldMT-42" x="305.712891"/>
    </g>
   </g>
   <g id="text_27">
    <!-- 2.9 MB -->
    <g style="fill: #262626" transform="translate(1506.220393 339.941741) scale(0.12 -0.12)">
     <use xlink:href="#Arial-BoldMT-32"/>
     <use xlink:href="#Arial-BoldMT-2e" x="55.615234"/>
     <use xlink:href="#Arial-BoldMT-39" x="83.398438"/>
     <use xlink:href="#Arial-BoldMT-20" x="139.013672"/>
     <use xlink:href="#Arial-BoldMT-4d" x="166.796875"/>
     <use xlink:href="#Arial-BoldMT-42" x="250.097656"/>
    </g>
   </g>
   <g id="text_28">
    <!-- 0.15 MB -->
    <g style="fill: #262626" transform="translate(1020.941027 121.77138) scale(0.12 -0.12)">
     <use xlink:href="#Arial-BoldMT-30"/>
     <use xlink:href="#Arial-BoldMT-2e" x="55.615234"/>
     <use xlink:href="#Arial-BoldMT-31" x="83.398438"/>
     <use xlink:href="#Arial-BoldMT-35" x="139.013672"/>
     <use xlink:href="#Arial-BoldMT-20" x="194.628906"/>
     <use xlink:href="#Arial-BoldMT-4d" x="222.412109"/>
     <use xlink:href="#Arial-BoldMT-42" x="305.712891"/>
    </g>
   </g>
   <g id="text_29">
    <!-- Memory Usage Comparison -->
    <g style="fill: #262626" transform="translate(1258.030184 18.8475) scale(0.16 -0.16)">
     <defs>
      <path id="Arial-BoldMT-67" d="M 378 -219 
L 1381 -341 
Q 1406 -516 1497 -581 
Q 1622 -675 1891 -675 
Q 2234 -675 2406 -572 
Q 2522 -503 2581 -350 
Q 2622 -241 2622 53 
L 2622 538 
Q 2228 0 1628 0 
Q 959 0 569 566 
Q 263 1013 263 1678 
Q 263 2513 664 2953 
Q 1066 3394 1663 3394 
Q 2278 3394 2678 2853 
L 2678 3319 
L 3500 3319 
L 3500 341 
Q 3500 -247 3403 -537 
Q 3306 -828 3131 -993 
Q 2956 -1159 2664 -1253 
Q 2372 -1347 1925 -1347 
Q 1081 -1347 728 -1058 
Q 375 -769 375 -325 
Q 375 -281 378 -219 
z
M 1163 1728 
Q 1163 1200 1367 954 
Q 1572 709 1872 709 
Q 2194 709 2416 961 
Q 2638 1213 2638 1706 
Q 2638 2222 2425 2472 
Q 2213 2722 1888 2722 
Q 1572 2722 1367 2476 
Q 1163 2231 1163 1728 
z
" transform="scale(0.015625)"/>
     </defs>
     <use xlink:href="#Arial-BoldMT-4d"/>
     <use xlink:href="#Arial-BoldMT-65" x="83.300781"/>
     <use xlink:href="#Arial-BoldMT-6d" x="138.916016"/>
     <use xlink:href="#Arial-BoldMT-6f" x="227.832031"/>
     <use xlink:href="#Arial-BoldMT-72" x="288.916016"/>
     <use xlink:href="#Arial-BoldMT-79" x="327.832031"/>
     <use xlink:href="#Arial-BoldMT-20" x="383.447266"/>
     <use xlink:href="#Arial-BoldMT-55" x="411.230469"/>
     <use xlink:href="#Arial-BoldMT-73" x="483.447266"/>
     <use xlink:href="#Arial-BoldMT-61" x="539.0625"/>
     <use xlink:href="#Arial-BoldMT-67" x="594.677734"/>
     <use xlink:href="#Arial-BoldMT-65" x="655.761719"/>
     <use xlink:href="#Arial-BoldMT-20" x="711.376953"/>
     <use xlink:href="#Arial-BoldMT-43" x="739.160156"/>
     <use xlink:href="#Arial-BoldMT-6f" x="811.376953"/>
     <use xlink:href="#Arial-BoldMT-6d" x="872.460938"/>
     <use xlink:href="#Arial-BoldMT-70" x="961.376953"/>
     <use xlink:href="#Arial-BoldMT-61" x="1022.460938"/>
     <use xlink:href="#Arial-BoldMT-72" x="1078.076172"/>
     <use xlink:href="#Arial-BoldMT-69" x="1116.992188"/>
     <use xlink:href="#Arial-BoldMT-73" x="1144.775391"/>
     <use xlink:href="#Arial-BoldMT-6f" x="1200.390625"/>
     <use xlink:href="#Arial-BoldMT-6e" x="1261.474609"/>
    </g>
   </g>
  </g>
  <g id="axes_3">
   <g id="matplotlib.axis_5"/>
   <g id="matplotlib.axis_6"/>
   <g id="patch_20">
    <path d="M 423.938806 845.820121 
C 370.146928 845.820121 317.544924 861.776511 272.818348 891.661281 
C 228.091772 921.546051 193.219323 964.037103 172.633183 1013.733954 
C 152.047043 1063.430804 146.657941 1118.13487 157.150816 1170.89343 
C 167.64369 1223.65199 193.554337 1272.131012 231.589592 1310.16896 
C 269.624848 1348.206907 318.102035 1374.120986 370.859853 1384.617594 
C 423.61767 1395.114203 478.322117 1389.728973 528.020425 1369.146351 
C 577.718732 1348.563729 620.212252 1313.694288 650.100188 1268.969827 
C 679.988124 1224.245366 695.948237 1171.644492 695.952044 1117.852614 
L 423.938806 1117.833361 
z
" style="fill: #172235; opacity: 0.5; stroke: #172235; stroke-width: 0.3; stroke-linejoin: miter"/>
   </g>
   <g id="patch_21">
    <path d="M 715.18742 1098.619508 
C 715.192524 1026.50589 686.520287 957.269972 635.53247 906.273733 
C 584.544652 855.277493 515.31347 826.593822 443.199852 826.587017 
L 443.174181 1098.600255 
z
" style="fill: #1a321f; opacity: 0.5; stroke: #1a321f; stroke-width: 0.3; stroke-linejoin: miter"/>
   </g>
   <g id="patch_22">
    <path d="M 433.58258 822.602681 
C 433.578308 822.60268 433.574035 822.60268 433.569762 822.60268 
C 433.56549 822.60268 433.561217 822.60268 433.556944 822.60268 
L 433.556909 1094.615919 
z
" style="fill: #3b1719; opacity: 0.5; stroke: #3b1719; stroke-width: 0.3; stroke-linejoin: miter"/>
   </g>
   <g id="patch_23">
    <path d="M 429.37907 840.379857 
C 375.587193 840.379857 322.985189 856.336246 278.258613 886.221016 
C 233.532037 916.105787 198.659588 958.596838 178.073448 1008.293689 
C 157.487308 1057.99054 152.098206 1112.694605 162.591081 1165.453165 
C 173.083955 1218.211726 198.994602 1266.690747 237.029857 1304.728695 
C 275.065112 1342.766643 323.5423 1368.680721 376.300118 1379.17733 
C 429.057935 1389.673938 483.762382 1384.288708 533.460689 1363.706086 
C 583.158997 1343.123464 625.652517 1308.254023 655.540453 1263.529562 
C 685.428389 1218.805102 701.388502 1166.204227 701.392309 1112.41235 
L 429.37907 1112.393096 
z
" style="fill: #4c72b0; stroke: #ffffff; stroke-width: 0.3; stroke-linejoin: miter"/>
   </g>
   <g id="patch_24">
    <path d="M 720.627684 1093.179244 
C 720.632789 1021.065625 691.960552 951.829707 640.972734 900.833468 
C 589.984917 849.837229 520.753735 821.153558 448.640117 821.146752 
L 448.614445 1093.15999 
z
" style="fill: #55a868; stroke: #ffffff; stroke-width: 0.3; stroke-linejoin: miter"/>
   </g>
   <g id="patch_25">
    <path d="M 439.022845 817.162416 
C 439.018572 817.162416 439.0143 817.162415 439.010027 817.162415 
C 439.005754 817.162415 439.001482 817.162415 438.997209 817.162415 
L 438.997174 1089.175654 
z
" style="fill: #c44e52; stroke: #ffffff; stroke-width: 0.3; stroke-linejoin: miter"/>
   </g>
   <g id="text_30">
    <!-- Full Model -->
    <g style="fill: #262626" transform="translate(153.530248 1327.332099) scale(0.13 -0.13)">
     <use xlink:href="#Arial-BoldMT-46"/>
     <use xlink:href="#Arial-BoldMT-75" x="61.083984"/>
     <use xlink:href="#Arial-BoldMT-6c" x="122.167969"/>
     <use xlink:href="#Arial-BoldMT-6c" x="149.951172"/>
     <use xlink:href="#Arial-BoldMT-20" x="177.734375"/>
     <use xlink:href="#Arial-BoldMT-4d" x="205.517578"/>
     <use xlink:href="#Arial-BoldMT-6f" x="288.818359"/>
     <use xlink:href="#Arial-BoldMT-64" x="349.902344"/>
     <use xlink:href="#Arial-BoldMT-65" x="410.986328"/>
     <use xlink:href="#Arial-BoldMT-6c" x="466.601562"/>
    </g>
   </g>
   <g id="text_31">
    <!-- 75.0% -->
    <g style="fill: #262626" transform="translate(295.540011 1224.118096) scale(0.13 -0.13)">
     <defs>
      <path id="Arial-BoldMT-25" d="M 278 3450 
Q 278 4066 548 4362 
Q 819 4659 1281 4659 
Q 1759 4659 2029 4364 
Q 2300 4069 2300 3450 
Q 2300 2834 2029 2537 
Q 1759 2241 1297 2241 
Q 819 2241 548 2536 
Q 278 2831 278 3450 
z
M 963 3456 
Q 963 3009 1066 2856 
Q 1144 2744 1281 2744 
Q 1422 2744 1500 2856 
Q 1600 3009 1600 3456 
Q 1600 3903 1500 4053 
Q 1422 4169 1281 4169 
Q 1144 4169 1066 4056 
Q 963 3903 963 3456 
z
M 1950 -175 
L 1300 -175 
L 3741 4659 
L 4372 4659 
L 1950 -175 
z
M 3369 1028 
Q 3369 1644 3639 1941 
Q 3909 2238 4378 2238 
Q 4850 2238 5120 1941 
Q 5391 1644 5391 1028 
Q 5391 409 5120 112 
Q 4850 -184 4388 -184 
Q 3909 -184 3639 112 
Q 3369 409 3369 1028 
z
M 4053 1031 
Q 4053 584 4156 434 
Q 4234 319 4372 319 
Q 4513 319 4588 431 
Q 4691 584 4691 1031 
Q 4691 1478 4591 1631 
Q 4513 1744 4372 1744 
Q 4231 1744 4156 1631 
Q 4053 1478 4053 1031 
z
" transform="scale(0.015625)"/>
     </defs>
     <use xlink:href="#Arial-BoldMT-37"/>
     <use xlink:href="#Arial-BoldMT-35" x="55.615234"/>
     <use xlink:href="#Arial-BoldMT-2e" x="111.230469"/>
     <use xlink:href="#Arial-BoldMT-30" x="139.013672"/>
     <use xlink:href="#Arial-BoldMT-25" x="194.628906"/>
    </g>
    <!-- (150.00W) -->
    <g style="fill: #262626" transform="translate(283.62673 1238.039877) scale(0.13 -0.13)">
     <defs>
      <path id="Arial-BoldMT-57" d="M 1116 0 
L 22 4581 
L 969 4581 
L 1659 1434 
L 2497 4581 
L 3597 4581 
L 4400 1381 
L 5103 4581 
L 6034 4581 
L 4922 0 
L 3941 0 
L 3028 3425 
L 2119 0 
L 1116 0 
z
" transform="scale(0.015625)"/>
     </defs>
     <use xlink:href="#Arial-BoldMT-28"/>
     <use xlink:href="#Arial-BoldMT-31" x="33.300781"/>
     <use xlink:href="#Arial-BoldMT-35" x="88.916016"/>
     <use xlink:href="#Arial-BoldMT-30" x="144.53125"/>
     <use xlink:href="#Arial-BoldMT-2e" x="200.146484"/>
     <use xlink:href="#Arial-BoldMT-30" x="227.929688"/>
     <use xlink:href="#Arial-BoldMT-30" x="283.544922"/>
     <use xlink:href="#Arial-BoldMT-57" x="339.160156"/>
     <use xlink:href="#Arial-BoldMT-29" x="433.544922"/>
    </g>
   </g>
   <g id="text_32">
    <!-- TFLite Model -->
    <g style="fill: #262626" transform="translate(660.208563 884.970659) scale(0.13 -0.13)">
     <use xlink:href="#Arial-BoldMT-54"/>
     <use xlink:href="#Arial-BoldMT-46" x="61.083984"/>
     <use xlink:href="#Arial-BoldMT-4c" x="122.167969"/>
     <use xlink:href="#Arial-BoldMT-69" x="183.251953"/>
     <use xlink:href="#Arial-BoldMT-74" x="211.035156"/>
     <use xlink:href="#Arial-BoldMT-65" x="244.335938"/>
     <use xlink:href="#Arial-BoldMT-20" x="299.951172"/>
     <use xlink:href="#Arial-BoldMT-4d" x="327.734375"/>
     <use xlink:href="#Arial-BoldMT-6f" x="411.035156"/>
     <use xlink:href="#Arial-BoldMT-64" x="472.119141"/>
     <use xlink:href="#Arial-BoldMT-65" x="533.203125"/>
     <use xlink:href="#Arial-BoldMT-6c" x="588.818359"/>
    </g>
   </g>
   <g id="text_33">
    <!-- 25.0% -->
    <g style="fill: #262626" transform="translate(545.599888 974.087717) scale(0.13 -0.13)">
     <use xlink:href="#Arial-BoldMT-32"/>
     <use xlink:href="#Arial-BoldMT-35" x="55.615234"/>
     <use xlink:href="#Arial-BoldMT-2e" x="111.230469"/>
     <use xlink:href="#Arial-BoldMT-30" x="139.013672"/>
     <use xlink:href="#Arial-BoldMT-25" x="194.628906"/>
    </g>
    <!-- (50.00W) -->
    <g style="fill: #262626" transform="translate(537.301216 988.009499) scale(0.13 -0.13)">
     <use xlink:href="#Arial-BoldMT-28"/>
     <use xlink:href="#Arial-BoldMT-35" x="33.300781"/>
     <use xlink:href="#Arial-BoldMT-30" x="88.916016"/>
     <use xlink:href="#Arial-BoldMT-2e" x="144.53125"/>
     <use xlink:href="#Arial-BoldMT-30" x="172.314453"/>
     <use xlink:href="#Arial-BoldMT-30" x="227.929688"/>
     <use xlink:href="#Arial-BoldMT-57" x="283.544922"/>
     <use xlink:href="#Arial-BoldMT-29" x="377.929688"/>
    </g>
   </g>
   <g id="text_34">
    <!-- Arduino (TFLite Micro) -->
    <g style="fill: #262626" transform="translate(439.011312 793.324841) scale(0.13 -0.13)">
     <use xlink:href="#Arial-BoldMT-41"/>
     <use xlink:href="#Arial-BoldMT-72" x="72.216797"/>
     <use xlink:href="#Arial-BoldMT-64" x="111.132812"/>
     <use xlink:href="#Arial-BoldMT-75" x="172.216797"/>
     <use xlink:href="#Arial-BoldMT-69" x="233.300781"/>
     <use xlink:href="#Arial-BoldMT-6e" x="261.083984"/>
     <use xlink:href="#Arial-BoldMT-6f" x="322.167969"/>
     <use xlink:href="#Arial-BoldMT-20" x="383.251953"/>
     <use xlink:href="#Arial-BoldMT-28" x="411.035156"/>
     <use xlink:href="#Arial-BoldMT-54" x="444.335938"/>
     <use xlink:href="#Arial-BoldMT-46" x="505.419922"/>
     <use xlink:href="#Arial-BoldMT-4c" x="566.503906"/>
     <use xlink:href="#Arial-BoldMT-69" x="627.587891"/>
     <use xlink:href="#Arial-BoldMT-74" x="655.371094"/>
     <use xlink:href="#Arial-BoldMT-65" x="688.671875"/>
     <use xlink:href="#Arial-BoldMT-20" x="744.287109"/>
     <use xlink:href="#Arial-BoldMT-4d" x="772.070312"/>
     <use xlink:href="#Arial-BoldMT-69" x="855.371094"/>
     <use xlink:href="#Arial-BoldMT-63" x="883.154297"/>
     <use xlink:href="#Arial-BoldMT-72" x="938.769531"/>
     <use xlink:href="#Arial-BoldMT-6f" x="977.685547"/>
     <use xlink:href="#Arial-BoldMT-29" x="1038.769531"/>
    </g>
   </g>
   <g id="text_35">
    <!-- 0.0% -->
    <g style="fill: #262626" transform="translate(424.189964 922.291351) scale(0.13 -0.13)">
     <use xlink:href="#Arial-BoldMT-30"/>
     <use xlink:href="#Arial-BoldMT-2e" x="55.615234"/>
     <use xlink:href="#Arial-BoldMT-30" x="83.398438"/>
     <use xlink:href="#Arial-BoldMT-25" x="139.013672"/>
    </g>
    <!-- (0.00W) -->
    <g style="fill: #262626" transform="translate(415.891292 936.213133) scale(0.13 -0.13)">
     <use xlink:href="#Arial-BoldMT-28"/>
     <use xlink:href="#Arial-BoldMT-30" x="33.300781"/>
     <use xlink:href="#Arial-BoldMT-2e" x="88.916016"/>
     <use xlink:href="#Arial-BoldMT-30" x="116.699219"/>
     <use xlink:href="#Arial-BoldMT-30" x="172.314453"/>
     <use xlink:href="#Arial-BoldMT-57" x="227.929688"/>
     <use xlink:href="#Arial-BoldMT-29" x="322.314453"/>
    </g>
   </g>
   <g id="text_36">
    <!-- Power Consumption Comparison -->
    <g style="fill: #262626" transform="translate(312.330999 782.800268) scale(0.16 -0.16)">
     <defs>
      <path id="Arial-BoldMT-77" d="M 1078 0 
L 28 3319 
L 881 3319 
L 1503 1144 
L 2075 3319 
L 2922 3319 
L 3475 1144 
L 4109 3319 
L 4975 3319 
L 3909 0 
L 3066 0 
L 2494 2134 
L 1931 0 
L 1078 0 
z
" transform="scale(0.015625)"/>
     </defs>
     <use xlink:href="#Arial-BoldMT-50"/>
     <use xlink:href="#Arial-BoldMT-6f" x="66.699219"/>
     <use xlink:href="#Arial-BoldMT-77" x="127.783203"/>
     <use xlink:href="#Arial-BoldMT-65" x="205.566406"/>
     <use xlink:href="#Arial-BoldMT-72" x="261.181641"/>
     <use xlink:href="#Arial-BoldMT-20" x="300.097656"/>
     <use xlink:href="#Arial-BoldMT-43" x="327.880859"/>
     <use xlink:href="#Arial-BoldMT-6f" x="400.097656"/>
     <use xlink:href="#Arial-BoldMT-6e" x="461.181641"/>
     <use xlink:href="#Arial-BoldMT-73" x="522.265625"/>
     <use xlink:href="#Arial-BoldMT-75" x="577.880859"/>
     <use xlink:href="#Arial-BoldMT-6d" x="638.964844"/>
     <use xlink:href="#Arial-BoldMT-70" x="727.880859"/>
     <use xlink:href="#Arial-BoldMT-74" x="788.964844"/>
     <use xlink:href="#Arial-BoldMT-69" x="822.265625"/>
     <use xlink:href="#Arial-BoldMT-6f" x="850.048828"/>
     <use xlink:href="#Arial-BoldMT-6e" x="911.132812"/>
     <use xlink:href="#Arial-BoldMT-20" x="972.216797"/>
     <use xlink:href="#Arial-BoldMT-43" x="1000"/>
     <use xlink:href="#Arial-BoldMT-6f" x="1072.216797"/>
     <use xlink:href="#Arial-BoldMT-6d" x="1133.300781"/>
     <use xlink:href="#Arial-BoldMT-70" x="1222.216797"/>
     <use xlink:href="#Arial-BoldMT-61" x="1283.300781"/>
     <use xlink:href="#Arial-BoldMT-72" x="1338.916016"/>
     <use xlink:href="#Arial-BoldMT-69" x="1377.832031"/>
     <use xlink:href="#Arial-BoldMT-73" x="1405.615234"/>
     <use xlink:href="#Arial-BoldMT-6f" x="1461.230469"/>
     <use xlink:href="#Arial-BoldMT-6e" x="1522.314453"/>
    </g>
   </g>
  </g>
  <g id="axes_4">
   <g id="patch_26">
    <path d="M 1675.8138 1100.783884 
C 1675.8138 1059.814571 1667.743739 1019.243633 1652.065462 981.392923 
C 1636.387184 943.542213 1613.405594 909.147832 1584.435915 880.178153 
C 1555.466236 851.208474 1521.071855 828.226884 1483.221145 812.548607 
C 1445.370436 796.870329 1404.799497 788.800268 1363.830184 788.800268 
C 1322.860871 788.800268 1282.289933 796.870329 1244.439223 812.548607 
C 1206.588513 828.226884 1172.194133 851.208474 1143.224454 880.178153 
C 1114.254775 909.147832 1091.273184 943.542213 1075.594907 981.392923 
C 1059.91663 1019.243633 1051.846568 1059.814571 1051.846568 1100.783884 
C 1051.846568 1141.753197 1059.91663 1182.324135 1075.594907 1220.174845 
C 1091.273184 1258.025555 1114.254775 1292.419935 1143.224454 1321.389614 
C 1172.194133 1350.359294 1206.588513 1373.340884 1244.439223 1389.019161 
C 1282.289933 1404.697439 1322.860871 1412.7675 1363.830184 1412.7675 
C 1404.799497 1412.7675 1445.370436 1404.697439 1483.221145 1389.019161 
C 1521.071855 1373.340884 1555.466236 1350.359294 1584.435915 1321.389614 
C 1613.405594 1292.419935 1636.387184 1258.025555 1652.065462 1220.174845 
C 1667.743739 1182.324135 1675.8138 1141.753197 1675.8138 1100.783884 
M 1363.830184 1100.783884 
C 1363.830184 1100.783884 1363.830184 1100.783884 1363.830184 1100.783884 
C 1363.830184 1100.783884 1363.830184 1100.783884 1363.830184 1100.783884 
C 1363.830184 1100.783884 1363.830184 1100.783884 1363.830184 1100.783884 
C 1363.830184 1100.783884 1363.830184 1100.783884 1363.830184 1100.783884 
C 1363.830184 1100.783884 1363.830184 1100.783884 1363.830184 1100.783884 
C 1363.830184 1100.783884 1363.830184 1100.783884 1363.830184 1100.783884 
C 1363.830184 1100.783884 1363.830184 1100.783884 1363.830184 1100.783884 
C 1363.830184 1100.783884 1363.830184 1100.783884 1363.830184 1100.783884 
C 1363.830184 1100.783884 1363.830184 1100.783884 1363.830184 1100.783884 
C 1363.830184 1100.783884 1363.830184 1100.783884 1363.830184 1100.783884 
C 1363.830184 1100.783884 1363.830184 1100.783884 1363.830184 1100.783884 
C 1363.830184 1100.783884 1363.830184 1100.783884 1363.830184 1100.783884 
C 1363.830184 1100.783884 1363.830184 1100.783884 1363.830184 1100.783884 
C 1363.830184 1100.783884 1363.830184 1100.783884 1363.830184 1100.783884 
C 1363.830184 1100.783884 1363.830184 1100.783884 1363.830184 1100.783884 
C 1363.830184 1100.783884 1363.830184 1100.783884 1363.830184 1100.783884 
z
" style="fill: #eaeaf2"/>
   </g>
   <g id="matplotlib.axis_7">
    <g id="xtick_24">
     <g id="line2d_33">
      <path d="M 1363.830184 1100.783884 
L 1675.8138 1100.783884 
" clip-path="url(#pec994e8ec6)" style="fill: none; stroke: #ffffff; stroke-opacity: 0.3; stroke-linecap: round"/>
     </g>
     <g id="text_37">
      <!-- Full Model -->
      <g style="fill: #262626" transform="translate(1655.209738 1104.412946) scale(0.14 -0.14)">
       <use xlink:href="#Arial-BoldMT-46"/>
       <use xlink:href="#Arial-BoldMT-75" x="61.083984"/>
       <use xlink:href="#Arial-BoldMT-6c" x="122.167969"/>
       <use xlink:href="#Arial-BoldMT-6c" x="149.951172"/>
       <use xlink:href="#Arial-BoldMT-20" x="177.734375"/>
       <use xlink:href="#Arial-BoldMT-4d" x="205.517578"/>
       <use xlink:href="#Arial-BoldMT-6f" x="288.818359"/>
       <use xlink:href="#Arial-BoldMT-64" x="349.902344"/>
       <use xlink:href="#Arial-BoldMT-65" x="410.986328"/>
       <use xlink:href="#Arial-BoldMT-6c" x="466.601562"/>
      </g>
     </g>
    </g>
    <g id="xtick_25">
     <g id="line2d_34">
      <path d="M 1363.830184 1100.783884 
L 1207.838376 830.598147 
" clip-path="url(#pec994e8ec6)" style="fill: none; stroke: #ffffff; stroke-opacity: 0.3; stroke-linecap: round"/>
     </g>
     <g id="text_38">
      <!-- TFLite Model -->
      <g style="fill: #262626" transform="translate(1157.680095 822.102854) scale(0.14 -0.14)">
       <use xlink:href="#Arial-BoldMT-54"/>
       <use xlink:href="#Arial-BoldMT-46" x="61.083984"/>
       <use xlink:href="#Arial-BoldMT-4c" x="122.167969"/>
       <use xlink:href="#Arial-BoldMT-69" x="183.251953"/>
       <use xlink:href="#Arial-BoldMT-74" x="211.035156"/>
       <use xlink:href="#Arial-BoldMT-65" x="244.335938"/>
       <use xlink:href="#Arial-BoldMT-20" x="299.951172"/>
       <use xlink:href="#Arial-BoldMT-4d" x="327.734375"/>
       <use xlink:href="#Arial-BoldMT-6f" x="411.035156"/>
       <use xlink:href="#Arial-BoldMT-64" x="472.119141"/>
       <use xlink:href="#Arial-BoldMT-65" x="533.203125"/>
       <use xlink:href="#Arial-BoldMT-6c" x="588.818359"/>
      </g>
     </g>
    </g>
    <g id="xtick_26">
     <g id="line2d_35">
      <path d="M 1363.830184 1100.783884 
L 1207.838376 1370.969621 
" clip-path="url(#pec994e8ec6)" style="fill: none; stroke: #ffffff; stroke-opacity: 0.3; stroke-linecap: round"/>
     </g>
     <g id="text_39">
      <!-- Arduino (TFLite Micro) -->
      <g style="fill: #262626" transform="translate(1125.798376 1386.716477) scale(0.14 -0.14)">
       <use xlink:href="#Arial-BoldMT-41"/>
       <use xlink:href="#Arial-BoldMT-72" x="72.216797"/>
       <use xlink:href="#Arial-BoldMT-64" x="111.132812"/>
       <use xlink:href="#Arial-BoldMT-75" x="172.216797"/>
       <use xlink:href="#Arial-BoldMT-69" x="233.300781"/>
       <use xlink:href="#Arial-BoldMT-6e" x="261.083984"/>
       <use xlink:href="#Arial-BoldMT-6f" x="322.167969"/>
       <use xlink:href="#Arial-BoldMT-20" x="383.251953"/>
       <use xlink:href="#Arial-BoldMT-28" x="411.035156"/>
       <use xlink:href="#Arial-BoldMT-54" x="444.335938"/>
       <use xlink:href="#Arial-BoldMT-46" x="505.419922"/>
       <use xlink:href="#Arial-BoldMT-4c" x="566.503906"/>
       <use xlink:href="#Arial-BoldMT-69" x="627.587891"/>
       <use xlink:href="#Arial-BoldMT-74" x="655.371094"/>
       <use xlink:href="#Arial-BoldMT-65" x="688.671875"/>
       <use xlink:href="#Arial-BoldMT-20" x="744.287109"/>
       <use xlink:href="#Arial-BoldMT-4d" x="772.070312"/>
       <use xlink:href="#Arial-BoldMT-69" x="855.371094"/>
       <use xlink:href="#Arial-BoldMT-63" x="883.154297"/>
       <use xlink:href="#Arial-BoldMT-72" x="938.769531"/>
       <use xlink:href="#Arial-BoldMT-6f" x="977.685547"/>
       <use xlink:href="#Arial-BoldMT-29" x="1038.769531"/>
      </g>
     </g>
    </g>
   </g>
   <g id="matplotlib.axis_8">
    <g id="ytick_10">
     <g id="line2d_36">
      <path d="M 1420.554478 1100.783884 
C 1420.554478 1093.334918 1419.087194 1085.958384 1416.236598 1079.076436 
C 1413.386002 1072.194489 1409.207531 1065.940965 1403.940317 1060.673751 
C 1398.673103 1055.406537 1392.419579 1051.228066 1385.537632 1048.37747 
C 1378.655685 1045.526874 1371.27915 1044.05959 1363.830184 1044.05959 
C 1356.381218 1044.05959 1349.004684 1045.526874 1342.122737 1048.37747 
C 1335.24079 1051.228066 1328.987266 1055.406537 1323.720051 1060.673751 
C 1318.452837 1065.940965 1314.274366 1072.194489 1311.42377 1079.076436 
C 1308.573174 1085.958384 1307.10589 1093.334918 1307.10589 1100.783884 
C 1307.10589 1108.23285 1308.573174 1115.609384 1311.42377 1122.491331 
C 1314.274366 1129.373279 1318.452837 1135.626802 1323.720051 1140.894017 
C 1328.987266 1146.161231 1335.24079 1150.339702 1342.122737 1153.190298 
C 1349.004684 1156.040894 1356.381218 1157.508178 1363.830184 1157.508178 
C 1371.27915 1157.508178 1378.655685 1156.040894 1385.537632 1153.190298 
C 1392.419579 1150.339702 1398.673103 1146.161231 1403.940317 1140.894017 
C 1409.207531 1135.626802 1413.386002 1129.373279 1416.236598 1122.491331 
C 1419.087194 1115.609384 1420.554478 1108.23285 1420.554478 1100.783884 
" clip-path="url(#pec994e8ec6)" style="fill: none; stroke: #ffffff; stroke-opacity: 0.3; stroke-linecap: round"/>
     </g>
     <g id="text_40">
      <!-- 20% -->
      <g style="fill: #262626" transform="translate(1416.236598 1076.708311) scale(0.12 -0.12)">
       <use xlink:href="#Arial-BoldMT-32"/>
       <use xlink:href="#Arial-BoldMT-30" x="55.615234"/>
       <use xlink:href="#Arial-BoldMT-25" x="111.230469"/>
      </g>
     </g>
    </g>
    <g id="ytick_11">
     <g id="line2d_37">
      <path d="M 1477.278772 1100.783884 
C 1477.278772 1085.885952 1474.344204 1071.132883 1468.643012 1057.368989 
C 1462.941821 1043.605094 1454.584879 1031.098047 1444.05045 1020.563618 
C 1433.516021 1010.029189 1421.008974 1001.672248 1407.245079 995.971056 
C 1393.481185 990.269864 1378.728116 987.335296 1363.830184 987.335296 
C 1348.932252 987.335296 1334.179184 990.269864 1320.415289 995.971056 
C 1306.651395 1001.672248 1294.144347 1010.029189 1283.609919 1020.563618 
C 1273.07549 1031.098047 1264.718548 1043.605094 1259.017356 1057.368989 
C 1253.316164 1071.132883 1250.381597 1085.885952 1250.381597 1100.783884 
C 1250.381597 1115.681816 1253.316164 1130.434884 1259.017356 1144.198779 
C 1264.718548 1157.962673 1273.07549 1170.469721 1283.609919 1181.00415 
C 1294.144347 1191.538578 1306.651395 1199.89552 1320.415289 1205.596712 
C 1334.179184 1211.297904 1348.932252 1214.232472 1363.830184 1214.232472 
C 1378.728116 1214.232472 1393.481185 1211.297904 1407.245079 1205.596712 
C 1421.008974 1199.89552 1433.516021 1191.538578 1444.05045 1181.00415 
C 1454.584879 1170.469721 1462.941821 1157.962673 1468.643012 1144.198779 
C 1474.344204 1130.434884 1477.278772 1115.681816 1477.278772 1100.783884 
" clip-path="url(#pec994e8ec6)" style="fill: none; stroke: #ffffff; stroke-opacity: 0.3; stroke-linecap: round"/>
     </g>
     <g id="text_41">
      <!-- 40% -->
      <g style="fill: #262626" transform="translate(1468.643012 1055.000864) scale(0.12 -0.12)">
       <use xlink:href="#Arial-BoldMT-34"/>
       <use xlink:href="#Arial-BoldMT-30" x="55.615234"/>
       <use xlink:href="#Arial-BoldMT-25" x="111.230469"/>
      </g>
     </g>
    </g>
    <g id="ytick_12">
     <g id="line2d_38">
      <path d="M 1534.003066 1100.783884 
C 1534.003066 1078.436986 1529.601214 1056.307383 1521.049426 1035.661542 
C 1512.497639 1015.0157 1499.962226 996.255129 1484.160583 980.453485 
C 1468.35894 964.651842 1449.598368 952.116429 1428.952527 943.564642 
C 1408.306685 935.012854 1386.177082 930.611002 1363.830184 930.611002 
C 1341.483286 930.611002 1319.353684 935.012854 1298.707842 943.564642 
C 1278.062 952.116429 1259.301429 964.651842 1243.499786 980.453485 
C 1227.698143 996.255129 1215.16273 1015.0157 1206.610942 1035.661542 
C 1198.059154 1056.307383 1193.657303 1078.436986 1193.657303 1100.783884 
C 1193.657303 1123.130782 1198.059154 1145.260385 1206.610942 1165.906226 
C 1215.16273 1186.552068 1227.698143 1205.312639 1243.499786 1221.114282 
C 1259.301429 1236.915926 1278.062 1249.451338 1298.707842 1258.003126 
C 1319.353684 1266.554914 1341.483286 1270.956765 1363.830184 1270.956765 
C 1386.177082 1270.956765 1408.306685 1266.554914 1428.952527 1258.003126 
C 1449.598368 1249.451338 1468.35894 1236.915926 1484.160583 1221.114282 
C 1499.962226 1205.312639 1512.497639 1186.552068 1521.049426 1165.906226 
C 1529.601214 1145.260385 1534.003066 1123.130782 1534.003066 1100.783884 
" clip-path="url(#pec994e8ec6)" style="fill: none; stroke: #ffffff; stroke-opacity: 0.3; stroke-linecap: round"/>
     </g>
     <g id="text_42">
      <!-- 60% -->
      <g style="fill: #262626" transform="translate(1521.049426 1033.293417) scale(0.12 -0.12)">
       <use xlink:href="#Arial-BoldMT-36"/>
       <use xlink:href="#Arial-BoldMT-30" x="55.615234"/>
       <use xlink:href="#Arial-BoldMT-25" x="111.230469"/>
      </g>
     </g>
    </g>
    <g id="ytick_13">
     <g id="line2d_39">
      <path d="M 1590.72736 1100.783884 
C 1590.72736 1070.98802 1584.858224 1041.481883 1573.455841 1013.954094 
C 1562.053457 986.426305 1545.339573 961.41221 1524.270716 940.343353 
C 1503.201858 919.274495 1478.187763 902.560611 1450.659974 891.158228 
C 1423.132185 879.755844 1393.626048 873.886709 1363.830184 873.886709 
C 1334.03432 873.886709 1304.528183 879.755844 1277.000394 891.158228 
C 1249.472605 902.560611 1224.45851 919.274495 1203.389653 940.343353 
C 1182.320795 961.41221 1165.606912 986.426305 1154.204528 1013.954094 
C 1142.802144 1041.481883 1136.933009 1070.98802 1136.933009 1100.783884 
C 1136.933009 1130.579748 1142.802144 1160.085885 1154.204528 1187.613674 
C 1165.606912 1215.141463 1182.320795 1240.155558 1203.389653 1261.224415 
C 1224.45851 1282.293273 1249.472605 1299.007157 1277.000394 1310.40954 
C 1304.528183 1321.811924 1334.03432 1327.681059 1363.830184 1327.681059 
C 1393.626048 1327.681059 1423.132185 1321.811924 1450.659974 1310.40954 
C 1478.187763 1299.007157 1503.201858 1282.293273 1524.270716 1261.224415 
C 1545.339573 1240.155558 1562.053457 1215.141463 1573.455841 1187.613674 
C 1584.858224 1160.085885 1590.72736 1130.579748 1590.72736 1100.783884 
" clip-path="url(#pec994e8ec6)" style="fill: none; stroke: #ffffff; stroke-opacity: 0.3; stroke-linecap: round"/>
     </g>
     <g id="text_43">
      <!-- 80% -->
      <g style="fill: #262626" transform="translate(1573.455841 1011.585969) scale(0.12 -0.12)">
       <use xlink:href="#Arial-BoldMT-38"/>
       <use xlink:href="#Arial-BoldMT-30" x="55.615234"/>
       <use xlink:href="#Arial-BoldMT-25" x="111.230469"/>
      </g>
     </g>
    </g>
    <g id="ytick_14">
     <g id="line2d_40">
      <path d="M 1647.451653 1100.783884 
C 1647.451653 1063.539054 1640.115234 1026.656383 1625.862255 992.246647 
C 1611.609275 957.83691 1590.71692 926.569292 1564.380848 900.23322 
C 1538.044777 873.897148 1506.777158 853.004793 1472.367422 838.751814 
C 1437.957685 824.498834 1401.075014 817.162415 1363.830184 817.162415 
C 1326.585354 817.162415 1289.702683 824.498834 1255.292947 838.751814 
C 1220.883211 853.004793 1189.615592 873.897148 1163.27952 900.23322 
C 1136.943448 926.569292 1116.051093 957.83691 1101.798114 992.246647 
C 1087.545135 1026.656383 1080.208715 1063.539054 1080.208715 1100.783884 
C 1080.208715 1138.028714 1087.545135 1174.911385 1101.798114 1209.321121 
C 1116.051093 1243.730857 1136.943448 1274.998476 1163.27952 1301.334548 
C 1189.615592 1327.67062 1220.883211 1348.562975 1255.292947 1362.815954 
C 1289.702683 1377.068934 1326.585354 1384.405353 1363.830184 1384.405353 
C 1401.075014 1384.405353 1437.957685 1377.068934 1472.367422 1362.815954 
C 1506.777158 1348.562975 1538.044777 1327.67062 1564.380848 1301.334548 
C 1590.71692 1274.998476 1611.609275 1243.730857 1625.862255 1209.321121 
C 1640.115234 1174.911385 1647.451653 1138.028714 1647.451653 1100.783884 
" clip-path="url(#pec994e8ec6)" style="fill: none; stroke: #ffffff; stroke-opacity: 0.3; stroke-linecap: round"/>
     </g>
     <g id="text_44">
      <!-- 100% -->
      <g style="fill: #262626" transform="translate(1625.862255 989.878522) scale(0.12 -0.12)">
       <use xlink:href="#Arial-BoldMT-31"/>
       <use xlink:href="#Arial-BoldMT-30" x="55.615234"/>
       <use xlink:href="#Arial-BoldMT-30" x="111.230469"/>
       <use xlink:href="#Arial-BoldMT-25" x="166.845703"/>
      </g>
     </g>
    </g>
   </g>
   <g id="patch_27">
    <path d="M 1644.615439 1100.783884 
L 1226.273772 862.529188 
L 1237.61863 1319.388708 
z
" clip-path="url(#pec994e8ec6)" style="fill: #4c72b0; opacity: 0.25; stroke: #ffffff; stroke-width: 0.3; stroke-linejoin: miter"/>
   </g>
   <g id="line2d_41">
    <path d="M 1644.615439 1100.783884 
L 1226.273772 862.529188 
L 1237.61863 1319.388708 
L 1644.615439 1100.783884 
" clip-path="url(#pec994e8ec6)" style="fill: none; stroke: #4c72b0; stroke-width: 2; stroke-linecap: round"/>
    <defs>
     <path id="ma35e39c871" d="M 0 3.5 
C 0.928211 3.5 1.81853 3.131218 2.474874 2.474874 
C 3.131218 1.81853 3.5 0.928211 3.5 0 
C 3.5 -0.928211 3.131218 -1.81853 2.474874 -2.474874 
C 1.81853 -3.131218 0.928211 -3.5 0 -3.5 
C -0.928211 -3.5 -1.81853 -3.131218 -2.474874 -2.474874 
C -3.131218 -1.81853 -3.5 -0.928211 -3.5 0 
C -3.5 0.928211 -3.131218 1.81853 -2.474874 2.474874 
C -1.81853 3.131218 -0.928211 3.5 0 3.5 
z
"/>
    </defs>
    <g clip-path="url(#pec994e8ec6)">
     <use xlink:href="#ma35e39c871" x="1644.615439" y="1100.783884" style="fill: #4c72b0"/>
     <use xlink:href="#ma35e39c871" x="1226.273772" y="862.529188" style="fill: #4c72b0"/>
     <use xlink:href="#ma35e39c871" x="1237.61863" y="1319.388708" style="fill: #4c72b0"/>
     <use xlink:href="#ma35e39c871" x="1644.615439" y="1100.783884" style="fill: #4c72b0"/>
    </g>
   </g>
   <g id="patch_28">
    <path d="M 1675.8138 1100.783884 
C 1675.8138 1059.814571 1667.743739 1019.243633 1652.065462 981.392923 
C 1636.387184 943.542213 1613.405594 909.147832 1584.435915 880.178153 
C 1555.466236 851.208474 1521.071855 828.226884 1483.221145 812.548607 
C 1445.370436 796.870329 1404.799497 788.800268 1363.830184 788.800268 
C 1322.860871 788.800268 1282.289933 796.870329 1244.439223 812.548607 
C 1206.588513 828.226884 1172.194133 851.208474 1143.224454 880.178153 
C 1114.254775 909.147832 1091.273184 943.542213 1075.594907 981.392923 
C 1059.91663 1019.243633 1051.846568 1059.814571 1051.846568 1100.783884 
C 1051.846568 1141.753197 1059.91663 1182.324135 1075.594907 1220.174845 
C 1091.273184 1258.025555 1114.254775 1292.419935 1143.224454 1321.389614 
C 1172.194133 1350.359294 1206.588513 1373.340884 1244.439223 1389.019161 
C 1282.289933 1404.697439 1322.860871 1412.7675 1363.830184 1412.7675 
C 1404.799497 1412.7675 1445.370436 1404.697439 1483.221145 1389.019161 
C 1521.071855 1373.340884 1555.466236 1350.359294 1584.435915 1321.389614 
C 1613.405594 1292.419935 1636.387184 1258.025555 1652.065462 1220.174845 
C 1667.743739 1182.324135 1675.8138 1141.753197 1675.8138 1100.783884 
" style="fill: none"/>
   </g>
   <g id="text_45">
    <g id="patch_29">
     <path d="M 1670.937586 1108.302634 
L 1699.034461 1108.302634 
L 1699.034461 1093.265134 
L 1670.937586 1093.265134 
z
" style="fill: #ffffff; opacity: 0.7"/>
    </g>
    <!-- 99% -->
    <g style="fill: #262626" transform="translate(1672.977586 1103.894509) scale(0.12 -0.12)">
     <use xlink:href="#Arial-BoldMT-39"/>
     <use xlink:href="#Arial-BoldMT-39" x="55.615234"/>
     <use xlink:href="#Arial-BoldMT-25" x="111.230469"/>
    </g>
   </g>
   <g id="text_46">
    <g id="patch_30">
     <path d="M 1186.035823 845.485599 
L 1214.132698 845.485599 
L 1214.132698 830.448099 
L 1186.035823 830.448099 
z
" style="fill: #ffffff; opacity: 0.7"/>
    </g>
    <!-- 97% -->
    <g style="fill: #262626" transform="translate(1188.075823 841.077474) scale(0.12 -0.12)">
     <use xlink:href="#Arial-BoldMT-39"/>
     <use xlink:href="#Arial-BoldMT-37" x="55.615234"/>
     <use xlink:href="#Arial-BoldMT-25" x="111.230469"/>
    </g>
   </g>
   <g id="text_47">
    <g id="patch_31">
     <path d="M 1197.380682 1351.469797 
L 1225.477557 1351.469797 
L 1225.477557 1336.432297 
L 1197.380682 1336.432297 
z
" style="fill: #ffffff; opacity: 0.7"/>
    </g>
    <!-- 89% -->
    <g style="fill: #262626" transform="translate(1199.420682 1347.061672) scale(0.12 -0.12)">
     <use xlink:href="#Arial-BoldMT-38"/>
     <use xlink:href="#Arial-BoldMT-39" x="55.615234"/>
     <use xlink:href="#Arial-BoldMT-25" x="111.230469"/>
    </g>
   </g>
   <g id="text_48">
    <!-- Model Accuracy Comparison -->
    <g style="fill: #262626" transform="translate(1253.886434 782.800268) scale(0.16 -0.16)">
     <use xlink:href="#Arial-BoldMT-4d"/>
     <use xlink:href="#Arial-BoldMT-6f" x="83.300781"/>
     <use xlink:href="#Arial-BoldMT-64" x="144.384766"/>
     <use xlink:href="#Arial-BoldMT-65" x="205.46875"/>
     <use xlink:href="#Arial-BoldMT-6c" x="261.083984"/>
     <use xlink:href="#Arial-BoldMT-20" x="288.867188"/>
     <use xlink:href="#Arial-BoldMT-41" x="312.900391"/>
     <use xlink:href="#Arial-BoldMT-63" x="385.117188"/>
     <use xlink:href="#Arial-BoldMT-63" x="440.732422"/>
     <use xlink:href="#Arial-BoldMT-75" x="496.347656"/>
     <use xlink:href="#Arial-BoldMT-72" x="557.431641"/>
     <use xlink:href="#Arial-BoldMT-61" x="596.347656"/>
     <use xlink:href="#Arial-BoldMT-63" x="651.962891"/>
     <use xlink:href="#Arial-BoldMT-79" x="707.578125"/>
     <use xlink:href="#Arial-BoldMT-20" x="763.193359"/>
     <use xlink:href="#Arial-BoldMT-43" x="790.976562"/>
     <use xlink:href="#Arial-BoldMT-6f" x="863.193359"/>
     <use xlink:href="#Arial-BoldMT-6d" x="924.277344"/>
     <use xlink:href="#Arial-BoldMT-70" x="1013.193359"/>
     <use xlink:href="#Arial-BoldMT-61" x="1074.277344"/>
     <use xlink:href="#Arial-BoldMT-72" x="1129.892578"/>
     <use xlink:href="#Arial-BoldMT-69" x="1168.808594"/>
     <use xlink:href="#Arial-BoldMT-73" x="1196.591797"/>
     <use xlink:href="#Arial-BoldMT-6f" x="1252.207031"/>
     <use xlink:href="#Arial-BoldMT-6e" x="1313.291016"/>
    </g>
   </g>
  </g>
 </g>
 <defs>
  <clipPath id="pbeac74e0e4">
   <rect x="53.025781" y="24.8475" width="771.942935" height="623.967232"/>
  </clipPath>
  <clipPath id="p9a7f84ff70">
   <rect x="977.858717" y="24.8475" width="771.942935" height="623.967232"/>
  </clipPath>
  <clipPath id="pec994e8ec6">
   <path d="M 1675.8138 1100.783884 
C 1675.8138 1059.814571 1667.743739 1019.243633 1652.065462 981.392923 
C 1636.387184 943.542213 1613.405594 909.147832 1584.435915 880.178153 
C 1555.466236 851.208474 1521.071855 828.226884 1483.221145 812.548607 
C 1445.370436 796.870329 1404.799497 788.800268 1363.830184 788.800268 
C 1322.860871 788.800268 1282.289933 796.870329 1244.439223 812.548607 
C 1206.588513 828.226884 1172.194133 851.208474 1143.224454 880.178153 
C 1114.254775 909.147832 1091.273184 943.542213 1075.594907 981.392923 
C 1059.91663 1019.243633 1051.846568 1059.814571 1051.846568 1100.783884 
C 1051.846568 1141.753197 1059.91663 1182.324135 1075.594907 1220.174845 
C 1091.273184 1258.025555 1114.254775 1292.419935 1143.224454 1321.389614 
C 1172.194133 1350.359294 1206.588513 1373.340884 1244.439223 1389.019161 
C 1282.289933 1404.697439 1322.860871 1412.7675 1363.830184 1412.7675 
C 1404.799497 1412.7675 1445.370436 1404.697439 1483.221145 1389.019161 
C 1521.071855 1373.340884 1555.466236 1350.359294 1584.435915 1321.389614 
C 1613.405594 1292.419935 1636.387184 1258.025555 1652.065462 1220.174845 
C 1667.743739 1182.324135 1675.8138 1141.753197 1675.8138 1100.783884 
M 1363.830184 1100.783884 
C 1363.830184 1100.783884 1363.830184 1100.783884 1363.830184 1100.783884 
C 1363.830184 1100.783884 1363.830184 1100.783884 1363.830184 1100.783884 
C 1363.830184 1100.783884 1363.830184 1100.783884 1363.830184 1100.783884 
C 1363.830184 1100.783884 1363.830184 1100.783884 1363.830184 1100.783884 
C 1363.830184 1100.783884 1363.830184 1100.783884 1363.830184 1100.783884 
C 1363.830184 1100.783884 1363.830184 1100.783884 1363.830184 1100.783884 
C 1363.830184 1100.783884 1363.830184 1100.783884 1363.830184 1100.783884 
C 1363.830184 1100.783884 1363.830184 1100.783884 1363.830184 1100.783884 
C 1363.830184 1100.783884 1363.830184 1100.783884 1363.830184 1100.783884 
C 1363.830184 1100.783884 1363.830184 1100.783884 1363.830184 1100.783884 
C 1363.830184 1100.783884 1363.830184 1100.783884 1363.830184 1100.783884 
C 1363.830184 1100.783884 1363.830184 1100.783884 1363.830184 1100.783884 
C 1363.830184 1100.783884 1363.830184 1100.783884 1363.830184 1100.783884 
C 1363.830184 1100.783884 1363.830184 1100.783884 1363.830184 1100.783884 
C 1363.830184 1100.783884 1363.830184 1100.783884 1363.830184 1100.783884 
C 1363.830184 1100.783884 1363.830184 1100.783884 1363.830184 1100.783884 
z
"/>
  </clipPath>
 </defs>
</svg>
